<svg xmlns="http://www.w3.org/2000/svg" xmlns:xlink="http://www.w3.org/1999/xlink" width="500" zoomAndPan="magnify" viewBox="0 0 375 374.999991" height="500" preserveAspectRatio="xMidYMid meet" version="1.0"><defs><clipPath id="06683f8acd"><path d="M 1.910156 1.910156 L 373.160156 1.910156 L 373.160156 373.160156 L 1.910156 373.160156 Z M 1.910156 1.910156 " clip-rule="nonzero"/></clipPath></defs><g clip-path="url(#06683f8acd)"><path fill="#b188db" d="M 340.230469 1.910156 L 34.5 1.910156 C 33.425781 1.910156 32.355469 1.964844 31.289062 2.070312 C 30.222656 2.171875 29.160156 2.332031 28.109375 2.539062 C 27.058594 2.75 26.019531 3.007812 24.992188 3.320312 C 23.964844 3.628906 22.957031 3.992188 21.964844 4.402344 C 20.972656 4.8125 20.003906 5.269531 19.058594 5.773438 C 18.113281 6.277344 17.191406 6.828125 16.300781 7.421875 C 15.410156 8.019531 14.546875 8.65625 13.71875 9.335938 C 12.886719 10.015625 12.09375 10.734375 11.335938 11.492188 C 10.574219 12.25 9.855469 13.042969 9.171875 13.871094 C 8.492188 14.699219 7.851562 15.558594 7.253906 16.449219 C 6.660156 17.339844 6.105469 18.257812 5.597656 19.203125 C 5.09375 20.148438 4.632812 21.117188 4.222656 22.109375 C 3.808594 23.097656 3.445312 24.105469 3.132812 25.132812 C 2.820312 26.15625 2.558594 27.195312 2.347656 28.25 C 2.136719 29.300781 1.976562 30.359375 1.871094 31.425781 C 1.761719 32.492188 1.707031 33.5625 1.703125 34.636719 L 1.703125 285.4375 C 1.707031 286.507812 1.761719 287.578125 1.871094 288.644531 C 1.976562 289.714844 2.136719 290.773438 2.347656 291.824219 C 2.558594 292.875 2.820312 293.914062 3.132812 294.941406 C 3.445312 295.964844 3.808594 296.972656 4.222656 297.964844 C 4.632812 298.953125 5.09375 299.921875 5.597656 300.867188 C 6.105469 301.8125 6.660156 302.730469 7.253906 303.621094 C 7.851562 304.511719 8.492188 305.375 9.171875 306.203125 C 9.855469 307.03125 10.574219 307.824219 11.335938 308.582031 C 12.09375 309.339844 12.886719 310.058594 13.71875 310.738281 C 14.546875 311.417969 15.410156 312.054688 16.300781 312.648438 C 17.191406 313.242188 18.113281 313.792969 19.058594 314.300781 C 20.003906 314.804688 20.972656 315.261719 21.964844 315.671875 C 22.957031 316.082031 23.964844 316.441406 24.992188 316.753906 C 26.019531 317.0625 27.058594 317.324219 28.109375 317.53125 C 29.160156 317.742188 30.222656 317.898438 31.289062 318.003906 C 32.355469 318.109375 33.425781 318.160156 34.5 318.160156 L 137.625 318.160156 L 127.3125 359.410156 L 104.828125 359.410156 L 104.828125 373.160156 L 269.828125 373.160156 L 269.828125 359.410156 L 247.691406 359.410156 L 237.378906 318.160156 L 340.503906 318.160156 C 341.574219 318.160156 342.644531 318.105469 343.710938 317.996094 C 344.777344 317.890625 345.835938 317.730469 346.882812 317.519531 C 347.933594 317.308594 348.972656 317.050781 349.996094 316.738281 C 351.023438 316.425781 352.027344 316.0625 353.019531 315.652344 C 354.007812 315.242188 354.972656 314.78125 355.917969 314.277344 C 356.863281 313.769531 357.78125 313.21875 358.667969 312.625 C 359.558594 312.03125 360.417969 311.390625 361.246094 310.710938 C 362.074219 310.03125 362.867188 309.3125 363.625 308.554688 C 364.382812 307.796875 365.101562 307.007812 365.78125 306.179688 C 366.460938 305.351562 367.097656 304.492188 367.695312 303.601562 C 368.289062 302.710938 368.839844 301.792969 369.34375 300.847656 C 369.851562 299.90625 370.308594 298.9375 370.71875 297.949219 C 371.132812 296.960938 371.492188 295.953125 371.804688 294.929688 C 372.117188 293.902344 372.378906 292.867188 372.589844 291.816406 C 372.800781 290.765625 372.960938 289.707031 373.066406 288.640625 C 373.171875 287.574219 373.226562 286.507812 373.230469 285.4375 L 373.230469 34.636719 C 373.226562 33.558594 373.171875 32.484375 373.066406 31.414062 C 372.957031 30.34375 372.796875 29.277344 372.582031 28.222656 C 372.371094 27.167969 372.105469 26.125 371.789062 25.09375 C 371.476562 24.066406 371.109375 23.054688 370.695312 22.058594 C 370.277344 21.066406 369.816406 20.09375 369.304688 19.148438 C 368.792969 18.199219 368.238281 17.277344 367.636719 16.386719 C 367.035156 15.492188 366.390625 14.628906 365.703125 13.800781 C 365.019531 12.972656 364.292969 12.175781 363.527344 11.417969 C 362.761719 10.660156 361.964844 9.941406 361.128906 9.261719 C 360.292969 8.582031 359.425781 7.945312 358.527344 7.351562 C 357.628906 6.757812 356.703125 6.210938 355.75 5.707031 C 354.796875 5.203125 353.824219 4.75 352.828125 4.339844 C 351.828125 3.933594 350.816406 3.578125 349.78125 3.269531 C 348.75 2.964844 347.707031 2.707031 346.648438 2.503906 C 345.589844 2.300781 344.527344 2.148438 343.453125 2.050781 C 342.382812 1.949219 341.308594 1.90625 340.230469 1.910156 Z M 233.53125 359.410156 L 141.128906 359.410156 L 151.441406 318.160156 L 223.21875 318.160156 Z M 359.203125 285.4375 C 359.203125 286.058594 359.171875 286.675781 359.109375 287.292969 C 359.042969 287.910156 358.953125 288.523438 358.828125 289.132812 C 358.707031 289.742188 358.554688 290.34375 358.371094 290.9375 C 358.191406 291.53125 357.980469 292.113281 357.742188 292.6875 C 357.503906 293.261719 357.238281 293.820312 356.945312 294.367188 C 356.652344 294.914062 356.332031 295.445312 355.984375 295.960938 C 355.640625 296.476562 355.269531 296.976562 354.875 297.457031 C 354.484375 297.933594 354.066406 298.394531 353.628906 298.832031 C 353.1875 299.273438 352.730469 299.6875 352.25 300.082031 C 351.769531 300.476562 351.273438 300.847656 350.753906 301.191406 C 350.238281 301.539062 349.707031 301.855469 349.160156 302.152344 C 348.613281 302.445312 348.054688 302.710938 347.480469 302.949219 C 346.90625 303.1875 346.324219 303.398438 345.730469 303.578125 C 345.136719 303.761719 344.535156 303.914062 343.925781 304.035156 C 343.320312 304.15625 342.707031 304.25 342.085938 304.3125 C 341.46875 304.375 340.851562 304.410156 340.230469 304.410156 L 34.5 304.410156 C 33.875 304.410156 33.253906 304.378906 32.636719 304.320312 C 32.015625 304.257812 31.402344 304.167969 30.792969 304.046875 C 30.179688 303.925781 29.578125 303.773438 28.984375 303.59375 C 28.386719 303.414062 27.800781 303.207031 27.226562 302.96875 C 26.652344 302.730469 26.089844 302.464844 25.539062 302.171875 C 24.992188 301.878906 24.457031 301.5625 23.941406 301.214844 C 23.421875 300.871094 22.921875 300.5 22.441406 300.109375 C 21.960938 299.714844 21.496094 299.296875 21.058594 298.859375 C 20.617188 298.417969 20.199219 297.957031 19.800781 297.480469 C 19.40625 297 19.035156 296.5 18.6875 295.984375 C 18.339844 295.464844 18.019531 294.933594 17.726562 294.386719 C 17.429688 293.839844 17.164062 293.277344 16.925781 292.703125 C 16.683594 292.128906 16.472656 291.542969 16.292969 290.949219 C 16.109375 290.355469 15.957031 289.75 15.832031 289.140625 C 15.710938 288.53125 15.617188 287.917969 15.554688 287.296875 C 15.488281 286.679688 15.457031 286.058594 15.453125 285.4375 L 15.453125 235.660156 L 242.328125 235.660156 L 242.328125 221.910156 L 15.453125 221.910156 L 15.453125 34.636719 C 15.457031 34.015625 15.488281 33.394531 15.554688 32.773438 C 15.617188 32.15625 15.710938 31.539062 15.832031 30.929688 C 15.957031 30.320312 16.109375 29.71875 16.292969 29.125 C 16.472656 28.527344 16.683594 27.945312 16.925781 27.371094 C 17.164062 26.796875 17.429688 26.234375 17.726562 25.6875 C 18.019531 25.136719 18.339844 24.605469 18.6875 24.089844 C 19.035156 23.574219 19.40625 23.074219 19.800781 22.59375 C 20.199219 22.113281 20.617188 21.652344 21.058594 21.214844 C 21.496094 20.777344 21.960938 20.359375 22.441406 19.964844 C 22.921875 19.570312 23.421875 19.203125 23.941406 18.855469 C 24.457031 18.511719 24.992188 18.191406 25.539062 17.898438 C 26.089844 17.605469 26.652344 17.34375 27.226562 17.105469 C 27.800781 16.867188 28.386719 16.65625 28.984375 16.476562 C 29.578125 16.296875 30.179688 16.148438 30.792969 16.027344 C 31.402344 15.90625 32.015625 15.8125 32.636719 15.753906 C 33.253906 15.691406 33.875 15.660156 34.5 15.660156 L 340.230469 15.660156 C 340.851562 15.664062 341.46875 15.695312 342.085938 15.757812 C 342.707031 15.820312 343.320312 15.914062 343.925781 16.039062 C 344.535156 16.160156 345.136719 16.3125 345.730469 16.492188 C 346.324219 16.675781 346.90625 16.886719 347.480469 17.125 C 348.054688 17.363281 348.613281 17.628906 349.160156 17.921875 C 349.707031 18.214844 350.238281 18.535156 350.753906 18.878906 C 351.273438 19.226562 351.769531 19.59375 352.25 19.988281 C 352.730469 20.382812 353.1875 20.800781 353.628906 21.238281 C 354.066406 21.679688 354.484375 22.136719 354.878906 22.617188 C 355.269531 23.097656 355.640625 23.59375 355.984375 24.109375 C 356.332031 24.625 356.652344 25.15625 356.945312 25.703125 C 357.238281 26.253906 357.503906 26.8125 357.742188 27.386719 C 357.980469 27.957031 358.191406 28.542969 358.371094 29.136719 C 358.554688 29.730469 358.707031 30.332031 358.828125 30.9375 C 358.953125 31.546875 359.042969 32.160156 359.109375 32.777344 C 359.171875 33.394531 359.203125 34.015625 359.203125 34.636719 Z M 173.578125 263.160156 L 201.078125 263.160156 L 201.078125 276.910156 L 173.578125 276.910156 Z M 123.460938 68.667969 L 73.410156 118.785156 L 123.53125 168.90625 L 113.835938 178.667969 L 58.835938 123.667969 C 58.515625 123.347656 58.226562 123 57.972656 122.625 C 57.71875 122.246094 57.507812 121.847656 57.332031 121.429688 C 57.15625 121.011719 57.023438 120.578125 56.9375 120.132812 C 56.847656 119.6875 56.800781 119.238281 56.800781 118.785156 C 56.800781 118.332031 56.847656 117.882812 56.9375 117.4375 C 57.023438 116.992188 57.15625 116.5625 57.332031 116.140625 C 57.507812 115.722656 57.71875 115.324219 57.972656 114.949219 C 58.226562 114.574219 58.515625 114.222656 58.835938 113.90625 L 113.835938 58.90625 Z M 315.960938 123.667969 L 260.960938 178.667969 L 251.265625 168.90625 L 301.386719 118.785156 L 251.265625 68.667969 L 260.960938 58.90625 L 315.960938 113.90625 C 316.285156 114.222656 316.570312 114.574219 316.824219 114.949219 C 317.078125 115.324219 317.292969 115.722656 317.464844 116.140625 C 317.640625 116.5625 317.773438 116.992188 317.863281 117.4375 C 317.949219 117.882812 317.996094 118.332031 317.996094 118.785156 C 317.996094 119.238281 317.949219 119.6875 317.863281 120.132812 C 317.773438 120.578125 317.640625 121.011719 317.464844 121.429688 C 317.292969 121.847656 317.078125 122.246094 316.824219 122.625 C 316.570312 123 316.285156 123.347656 315.960938 123.667969 Z M 208.4375 47.492188 L 221.222656 52.578125 L 166.222656 190.078125 L 153.4375 184.992188 Z M 338.578125 228.785156 C 338.578125 229.6875 338.492188 230.582031 338.316406 231.46875 C 338.140625 232.355469 337.878906 233.214844 337.535156 234.046875 C 337.1875 234.882812 336.765625 235.675781 336.261719 236.425781 C 335.761719 237.175781 335.191406 237.871094 334.550781 238.507812 C 333.914062 239.148438 333.21875 239.71875 332.46875 240.21875 C 331.71875 240.71875 330.925781 241.144531 330.09375 241.488281 C 329.257812 241.835938 328.398438 242.097656 327.511719 242.273438 C 326.625 242.449219 325.734375 242.535156 324.828125 242.535156 C 323.925781 242.535156 323.03125 242.449219 322.148438 242.273438 C 321.261719 242.097656 320.402344 241.835938 319.566406 241.488281 C 318.734375 241.144531 317.941406 240.71875 317.191406 240.21875 C 316.441406 239.71875 315.746094 239.148438 315.105469 238.507812 C 314.46875 237.871094 313.898438 237.175781 313.398438 236.425781 C 312.894531 235.675781 312.472656 234.882812 312.125 234.046875 C 311.78125 233.214844 311.519531 232.355469 311.34375 231.46875 C 311.167969 230.582031 311.078125 229.6875 311.078125 228.785156 C 311.078125 227.882812 311.167969 226.988281 311.34375 226.105469 C 311.519531 225.21875 311.78125 224.359375 312.125 223.523438 C 312.472656 222.691406 312.894531 221.898438 313.398438 221.148438 C 313.898438 220.394531 314.46875 219.703125 315.105469 219.0625 C 315.746094 218.425781 316.441406 217.855469 317.191406 217.351562 C 317.941406 216.851562 318.734375 216.429688 319.566406 216.082031 C 320.402344 215.738281 321.261719 215.476562 322.148438 215.300781 C 323.03125 215.125 323.925781 215.035156 324.828125 215.035156 C 325.734375 215.035156 326.625 215.125 327.511719 215.300781 C 328.398438 215.476562 329.257812 215.738281 330.09375 216.082031 C 330.925781 216.429688 331.71875 216.851562 332.46875 217.351562 C 333.21875 217.855469 333.914062 218.425781 334.550781 219.0625 C 335.191406 219.703125 335.761719 220.394531 336.261719 221.148438 C 336.765625 221.898438 337.1875 222.691406 337.535156 223.523438 C 337.878906 224.359375 338.140625 225.21875 338.316406 226.105469 C 338.492188 226.988281 338.578125 227.882812 338.578125 228.785156 Z M 297.328125 228.785156 C 297.328125 229.6875 297.242188 230.582031 297.066406 231.46875 C 296.890625 232.355469 296.628906 233.214844 296.285156 234.046875 C 295.9375 234.882812 295.515625 235.675781 295.011719 236.425781 C 294.511719 237.175781 293.941406 237.871094 293.300781 238.507812 C 292.664062 239.148438 291.96875 239.71875 291.21875 240.21875 C 290.46875 240.71875 289.675781 241.144531 288.84375 241.488281 C 288.007812 241.835938 287.148438 242.097656 286.261719 242.273438 C 285.375 242.449219 284.484375 242.535156 283.578125 242.535156 C 282.675781 242.535156 281.78125 242.449219 280.898438 242.273438 C 280.011719 242.097656 279.152344 241.835938 278.316406 241.488281 C 277.484375 241.144531 276.691406 240.71875 275.941406 240.21875 C 275.191406 239.71875 274.496094 239.148438 273.855469 238.507812 C 273.21875 237.871094 272.648438 237.175781 272.148438 236.425781 C 271.644531 235.675781 271.222656 234.882812 270.875 234.046875 C 270.53125 233.214844 270.269531 232.355469 270.09375 231.46875 C 269.917969 230.582031 269.828125 229.6875 269.828125 228.785156 C 269.828125 227.882812 269.917969 226.988281 270.09375 226.105469 C 270.269531 225.21875 270.53125 224.359375 270.875 223.523438 C 271.222656 222.691406 271.644531 221.898438 272.148438 221.148438 C 272.648438 220.394531 273.21875 219.703125 273.855469 219.0625 C 274.496094 218.425781 275.191406 217.855469 275.941406 217.351562 C 276.691406 216.851562 277.484375 216.429688 278.316406 216.082031 C 279.152344 215.738281 280.011719 215.476562 280.898438 215.300781 C 281.78125 215.125 282.675781 215.035156 283.578125 215.035156 C 284.484375 215.035156 285.375 215.125 286.261719 215.300781 C 287.148438 215.476562 288.007812 215.738281 288.84375 216.082031 C 289.675781 216.429688 290.46875 216.851562 291.21875 217.351562 C 291.96875 217.855469 292.664062 218.425781 293.300781 219.0625 C 293.941406 219.703125 294.511719 220.394531 295.011719 221.148438 C 295.515625 221.898438 295.9375 222.691406 296.285156 223.523438 C 296.628906 224.359375 296.890625 225.21875 297.066406 226.105469 C 297.242188 226.988281 297.328125 227.882812 297.328125 228.785156 Z M 297.328125 228.785156 " fill-opacity="1" fill-rule="nonzero"/></g></svg>