<svg xmlns="http://www.w3.org/2000/svg" xmlns:xlink="http://www.w3.org/1999/xlink" width="500" zoomAndPan="magnify" viewBox="0 0 375 374.999991" height="500" preserveAspectRatio="xMidYMid meet" version="1.0"><defs><clipPath id="475b6645fc"><path d="M 130 122 L 372.535156 122 L 372.535156 237 L 130 237 Z M 130 122 " clip-rule="nonzero"/></clipPath><clipPath id="c4312dabed"><path d="M 130 243 L 372.535156 243 L 372.535156 301 L 130 301 Z M 130 243 " clip-rule="nonzero"/></clipPath><clipPath id="5c82db3955"><path d="M 130 179 L 372.535156 179 L 372.535156 363.683594 L 130 363.683594 Z M 130 179 " clip-rule="nonzero"/></clipPath><clipPath id="6da18b46dd"><path d="M 2.785156 11.183594 L 325 11.183594 L 325 333 L 2.785156 333 Z M 2.785156 11.183594 " clip-rule="nonzero"/></clipPath></defs><g clip-path="url(#475b6645fc)"><path fill="#b188db" d="M 164.425781 179.714844 C 164.421875 179.714844 164.425781 179.6875 164.441406 179.632812 C 164.4375 179.6875 164.425781 179.714844 164.425781 179.714844 Z M 164.515625 179.4375 C 164.722656 178.972656 165.347656 177.921875 167.128906 176.300781 C 170.316406 173.40625 175.871094 170.027344 184.152344 166.847656 C 200.609375 160.523438 224.480469 156.257812 251.6875 156.257812 C 278.894531 156.257812 302.765625 160.523438 319.222656 166.847656 C 327.507812 170.027344 333.058594 173.40625 336.246094 176.300781 C 338.03125 177.921875 338.65625 178.972656 338.859375 179.4375 C 338.65625 179.902344 338.03125 180.957031 336.246094 182.574219 C 333.058594 185.472656 327.507812 188.851562 319.222656 192.03125 C 302.765625 198.355469 278.894531 202.621094 251.6875 202.621094 C 224.480469 202.621094 200.609375 198.355469 184.152344 192.03125 C 175.871094 188.851562 170.316406 185.472656 167.128906 182.574219 C 165.347656 180.957031 164.722656 179.902344 164.515625 179.4375 Z M 338.953125 179.714844 C 338.949219 179.714844 338.941406 179.6875 338.933594 179.632812 C 338.949219 179.6875 338.957031 179.714844 338.953125 179.714844 Z M 338.933594 179.246094 C 338.941406 179.191406 338.949219 179.164062 338.953125 179.164062 C 338.957031 179.164062 338.949219 179.191406 338.933594 179.246094 Z M 164.441406 179.246094 C 164.425781 179.191406 164.421875 179.164062 164.425781 179.164062 C 164.425781 179.164062 164.4375 179.191406 164.441406 179.246094 Z M 172.085938 135.511719 C 193.285156 127.367188 221.433594 122.6875 251.6875 122.6875 C 281.941406 122.6875 310.089844 127.367188 331.289062 135.511719 C 341.835938 139.5625 351.519531 144.796875 358.863281 151.464844 C 366.207031 158.136719 372.535156 167.5625 372.535156 179.4375 C 372.535156 191.3125 366.207031 200.742188 358.863281 207.414062 C 351.519531 214.082031 341.835938 219.316406 331.289062 223.367188 C 310.089844 231.507812 281.941406 236.191406 251.6875 236.191406 C 221.433594 236.191406 193.285156 231.507812 172.085938 223.367188 C 161.542969 219.316406 151.855469 214.082031 144.515625 207.414062 C 137.167969 200.742188 130.839844 191.3125 130.839844 179.4375 C 130.839844 167.5625 137.167969 158.136719 144.515625 151.464844 C 151.855469 144.796875 161.542969 139.5625 172.085938 135.511719 Z M 172.085938 135.511719 " fill-opacity="1" fill-rule="evenodd"/></g><g clip-path="url(#c4312dabed)"><path fill="#b188db" d="M 338.933594 243.191406 C 338.929688 243.238281 338.921875 243.300781 338.921875 243.382812 L 372.535156 243.382812 C 372.535156 255.257812 366.207031 264.6875 358.863281 271.359375 C 351.519531 278.027344 341.835938 283.261719 331.289062 287.3125 C 310.089844 295.453125 281.941406 300.136719 251.6875 300.136719 C 221.433594 300.136719 193.285156 295.453125 172.085938 287.3125 C 161.542969 283.261719 151.855469 278.027344 144.515625 271.359375 C 137.167969 264.6875 130.839844 255.257812 130.839844 243.382812 L 164.453125 243.382812 C 164.453125 243.300781 164.449219 243.238281 164.441406 243.191406 C 164.535156 243.492188 165.027344 244.613281 167.128906 246.523438 C 170.316406 249.417969 175.871094 252.796875 184.152344 255.976562 C 200.609375 262.300781 224.480469 266.566406 251.6875 266.566406 C 278.894531 266.566406 302.765625 262.300781 319.222656 255.976562 C 327.507812 252.796875 333.058594 249.417969 336.246094 246.523438 C 338.347656 244.613281 338.839844 243.492188 338.933594 243.191406 Z M 338.953125 243.109375 C 338.957031 243.109375 338.949219 243.136719 338.933594 243.191406 C 338.941406 243.136719 338.949219 243.109375 338.953125 243.109375 Z M 164.425781 243.109375 C 164.425781 243.109375 164.4375 243.136719 164.441406 243.191406 C 164.425781 243.136719 164.421875 243.109375 164.425781 243.109375 Z M 164.425781 243.109375 " fill-opacity="1" fill-rule="evenodd"/></g><g clip-path="url(#5c82db3955)"><path fill="#b188db" d="M 164.453125 307.171875 L 164.453125 179.4375 L 130.839844 179.4375 L 130.839844 307.332031 C 130.839844 319.203125 137.167969 328.632812 144.515625 335.304688 C 151.855469 341.972656 161.542969 347.207031 172.085938 351.257812 C 193.285156 359.398438 221.433594 364.082031 251.6875 364.082031 C 281.941406 364.082031 310.089844 359.398438 331.289062 351.257812 C 341.835938 347.207031 351.519531 341.972656 358.863281 335.304688 C 366.207031 328.632812 372.535156 319.203125 372.535156 307.332031 L 372.535156 179.4375 L 338.921875 179.4375 L 338.921875 307.171875 C 338.804688 307.515625 338.277344 308.625 336.246094 310.46875 C 333.058594 313.363281 327.507812 316.742188 319.222656 319.921875 C 302.765625 326.246094 278.894531 330.511719 251.6875 330.511719 C 224.480469 330.511719 200.609375 326.246094 184.152344 319.921875 C 175.871094 316.742188 170.316406 313.363281 167.128906 310.46875 C 165.097656 308.625 164.570312 307.515625 164.453125 307.171875 Z M 338.953125 307.054688 C 338.957031 307.054688 338.949219 307.082031 338.933594 307.136719 C 338.941406 307.082031 338.949219 307.054688 338.953125 307.054688 Z M 164.441406 307.136719 C 164.425781 307.082031 164.421875 307.054688 164.425781 307.054688 C 164.425781 307.054688 164.4375 307.082031 164.441406 307.136719 Z M 164.441406 307.136719 " fill-opacity="1" fill-rule="evenodd"/></g><g clip-path="url(#6da18b46dd)"><path fill="#b188db" d="M 2.785156 27.566406 C 2.785156 18.296875 10.3125 10.78125 19.59375 10.78125 L 106.027344 10.78125 C 111.570312 10.78125 116.753906 13.511719 119.890625 18.074219 L 143.695312 52.746094 L 307.710938 52.746094 C 316.992188 52.746094 324.515625 60.261719 324.515625 69.53125 L 324.515625 107.5 L 290.902344 107.5 L 290.902344 86.316406 L 134.839844 86.316406 C 129.296875 86.316406 124.113281 83.589844 120.980469 79.023438 L 97.175781 44.355469 L 36.398438 44.355469 L 36.398438 298.539062 L 107.628906 298.539062 L 107.628906 332.109375 L 19.59375 332.109375 C 10.3125 332.109375 2.785156 324.59375 2.785156 315.324219 Z M 2.785156 27.566406 " fill-opacity="1" fill-rule="evenodd"/></g></svg>