<svg xmlns="http://www.w3.org/2000/svg" xmlns:xlink="http://www.w3.org/1999/xlink" width="500" zoomAndPan="magnify" viewBox="0 0 375 374.999991" height="500" preserveAspectRatio="xMidYMid meet" version="1.0"><defs><clipPath id="d2c9dca4e1"><path d="M 36.582031 125 L 338 125 L 338 342.8125 L 36.582031 342.8125 Z M 36.582031 125 " clip-rule="nonzero"/></clipPath><clipPath id="d56be9aa68"><path d="M 197 32.3125 L 279 32.3125 L 279 115 L 197 115 Z M 197 32.3125 " clip-rule="nonzero"/></clipPath></defs><g clip-path="url(#d2c9dca4e1)"><path fill="#b188db" d="M 320.195312 224.621094 L 304.644531 224.621094 C 305.917969 223.875 307.132812 223.046875 308.296875 222.140625 C 309.460938 221.234375 310.5625 220.257812 311.597656 219.207031 C 312.632812 218.160156 313.597656 217.046875 314.488281 215.871094 C 315.378906 214.695312 316.191406 213.464844 316.921875 212.183594 C 317.652344 210.902344 318.296875 209.578125 318.855469 208.214844 C 319.414062 206.847656 319.882812 205.449219 320.257812 204.023438 C 320.632812 202.597656 320.917969 201.152344 321.105469 199.6875 C 321.292969 198.222656 321.382812 196.753906 321.378906 195.277344 L 321.378906 172.789062 C 321.378906 171.234375 321.300781 169.683594 321.144531 168.132812 C 320.992188 166.585938 320.761719 165.050781 320.457031 163.523438 C 320.15625 162 319.777344 160.492188 319.324219 159.003906 C 318.871094 157.515625 318.347656 156.054688 317.753906 154.617188 C 317.15625 153.179688 316.492188 151.777344 315.761719 150.40625 C 315.027344 149.035156 314.230469 147.703125 313.367188 146.410156 C 312.503906 145.117188 311.578125 143.867188 310.59375 142.667969 C 309.609375 141.464844 308.566406 140.3125 307.46875 139.214844 C 306.371094 138.113281 305.222656 137.070312 304.019531 136.082031 C 302.820312 135.097656 301.574219 134.171875 300.285156 133.304688 C 298.992188 132.441406 297.664062 131.644531 296.292969 130.910156 C 294.925781 130.175781 293.523438 129.511719 292.085938 128.914062 C 290.652344 128.316406 289.191406 127.792969 287.707031 127.339844 C 286.222656 126.886719 284.71875 126.507812 283.195312 126.203125 C 281.671875 125.898438 280.136719 125.667969 278.59375 125.515625 C 277.046875 125.363281 275.496094 125.285156 273.945312 125.28125 L 201.949219 125.28125 C 200.078125 125.285156 198.210938 125.398438 196.351562 125.621094 C 194.492188 125.84375 192.652344 126.175781 190.832031 126.617188 C 189.011719 127.058594 187.222656 127.605469 185.464844 128.257812 C 183.710938 128.910156 181.996094 129.660156 180.332031 130.515625 C 178.664062 131.371094 177.050781 132.320312 175.496094 133.367188 C 173.941406 134.414062 172.453125 135.546875 171.03125 136.765625 C 169.609375 137.988281 168.265625 139.289062 166.996094 140.667969 C 165.730469 142.050781 164.546875 143.5 163.449219 145.019531 C 163.15625 145.539062 162.964844 146.09375 162.878906 146.683594 C 162.789062 147.273438 162.808594 147.859375 162.9375 148.441406 C 163.0625 149.023438 163.289062 149.5625 163.617188 150.0625 C 163.945312 150.5625 164.347656 150.984375 164.832031 151.332031 C 165.316406 151.683594 165.84375 151.933594 166.417969 152.085938 C 166.996094 152.238281 167.578125 152.285156 168.171875 152.222656 C 168.761719 152.15625 169.324219 151.992188 169.855469 151.722656 C 170.382812 151.449219 170.847656 151.09375 171.25 150.652344 C 172.125 149.441406 173.066406 148.28125 174.078125 147.183594 C 175.089844 146.082031 176.160156 145.042969 177.296875 144.070312 C 178.429688 143.097656 179.617188 142.191406 180.855469 141.359375 C 182.097656 140.527344 183.382812 139.769531 184.710938 139.085938 C 186.039062 138.40625 187.40625 137.804688 188.804688 137.28125 C 190.207031 136.761719 191.632812 136.328125 193.082031 135.976562 C 194.535156 135.625 196.003906 135.359375 197.484375 135.179688 C 198.96875 135 200.457031 134.910156 201.949219 134.910156 L 273.945312 134.910156 C 275.183594 134.910156 276.417969 134.972656 277.648438 135.09375 C 278.882812 135.21875 280.105469 135.398438 281.320312 135.644531 C 282.535156 135.886719 283.734375 136.1875 284.917969 136.546875 C 286.105469 136.910156 287.269531 137.328125 288.414062 137.800781 C 289.558594 138.277344 290.675781 138.808594 291.765625 139.390625 C 292.859375 139.976562 293.917969 140.613281 294.949219 141.304688 C 295.980469 141.992188 296.972656 142.730469 297.929688 143.519531 C 298.886719 144.304688 299.804688 145.136719 300.679688 146.015625 C 301.554688 146.890625 302.386719 147.808594 303.171875 148.769531 C 303.957031 149.726562 304.695312 150.722656 305.382812 151.753906 C 306.070312 152.785156 306.707031 153.847656 307.289062 154.941406 C 307.875 156.03125 308.402344 157.152344 308.878906 158.296875 C 309.351562 159.445312 309.769531 160.609375 310.128906 161.796875 C 310.492188 162.984375 310.792969 164.183594 311.035156 165.402344 C 311.277344 166.617188 311.460938 167.84375 311.582031 169.078125 C 311.703125 170.3125 311.765625 171.546875 311.765625 172.789062 L 311.765625 195.289062 C 311.769531 196.042969 311.738281 196.792969 311.671875 197.539062 C 311.605469 198.289062 311.503906 199.035156 311.367188 199.773438 C 311.234375 200.511719 311.0625 201.242188 310.859375 201.96875 C 310.65625 202.691406 310.421875 203.40625 310.152344 204.105469 C 309.882812 204.808594 309.582031 205.496094 309.246094 206.171875 C 308.914062 206.84375 308.550781 207.5 308.15625 208.140625 C 307.765625 208.78125 307.339844 209.402344 306.890625 210.003906 C 306.4375 210.601562 305.960938 211.183594 305.457031 211.738281 C 304.953125 212.296875 304.421875 212.828125 303.867188 213.335938 C 303.3125 213.84375 302.738281 214.324219 302.140625 214.777344 C 301.539062 215.230469 300.921875 215.65625 300.285156 216.050781 C 299.648438 216.449219 298.992188 216.816406 298.320312 217.148438 C 297.648438 217.484375 296.960938 217.789062 296.261719 218.0625 C 295.5625 218.332031 294.851562 218.574219 294.128906 218.777344 C 293.40625 218.984375 292.679688 219.15625 291.941406 219.292969 C 291.203125 219.433594 290.460938 219.535156 289.710938 219.605469 L 238.066406 224.59375 C 237.765625 224.59375 237.464844 224.59375 237.148438 224.59375 C 236.550781 224.59375 235.957031 224.535156 235.367188 224.425781 C 234.777344 224.316406 234.207031 224.152344 233.644531 223.941406 C 233.085938 223.726562 232.550781 223.464844 232.039062 223.152344 C 231.527344 222.839844 231.046875 222.488281 230.597656 222.089844 C 230.152344 221.691406 229.742188 221.257812 229.371094 220.785156 C 229.003906 220.3125 228.679688 219.8125 228.398438 219.28125 C 228.121094 218.75 227.890625 218.199219 227.710938 217.625 C 227.53125 217.054688 227.40625 216.472656 227.332031 215.875 C 227.253906 215.246094 227.242188 214.613281 227.289062 213.980469 C 227.335938 213.351562 227.445312 212.726562 227.609375 212.117188 C 227.777344 211.503906 228.003906 210.914062 228.285156 210.34375 C 228.566406 209.777344 228.898438 209.242188 229.28125 208.738281 C 229.667969 208.234375 230.097656 207.769531 230.570312 207.347656 C 231.042969 206.929688 231.554688 206.558594 232.101562 206.234375 C 232.644531 205.914062 233.21875 205.644531 233.8125 205.433594 C 234.410156 205.222656 235.023438 205.070312 235.648438 204.976562 L 284.246094 197.652344 C 284.554688 197.601562 284.851562 197.523438 285.144531 197.417969 C 285.433594 197.3125 285.714844 197.179688 285.980469 197.019531 C 286.246094 196.863281 286.496094 196.679688 286.726562 196.46875 C 286.957031 196.261719 287.164062 196.035156 287.351562 195.789062 C 287.539062 195.539062 287.703125 195.277344 287.839844 194.996094 C 287.976562 194.71875 288.082031 194.429688 288.164062 194.128906 C 288.246094 193.828125 288.296875 193.523438 288.320312 193.214844 C 288.339844 192.902344 288.335938 192.59375 288.296875 192.285156 L 284.488281 161.660156 C 284.414062 161.082031 284.242188 160.535156 283.96875 160.019531 C 283.699219 159.503906 283.347656 159.050781 282.910156 158.664062 C 282.476562 158.273438 281.988281 157.976562 281.445312 157.761719 C 280.90625 157.550781 280.34375 157.441406 279.761719 157.433594 C 279.550781 157.421875 279.339844 157.421875 279.132812 157.433594 C 278.820312 157.472656 278.511719 157.542969 278.214844 157.644531 C 277.914062 157.746094 277.628906 157.875 277.351562 158.03125 C 277.078125 158.1875 276.824219 158.367188 276.585938 158.574219 C 276.347656 158.78125 276.128906 159.011719 275.9375 159.261719 C 275.742188 159.507812 275.574219 159.773438 275.429688 160.058594 C 275.289062 160.339844 275.175781 160.632812 275.089844 160.9375 C 275.007812 161.242188 274.953125 161.550781 274.929688 161.867188 C 274.902344 162.183594 274.910156 162.496094 274.949219 162.808594 L 278.175781 188.785156 L 238.007812 194.839844 L 197.839844 188.785156 L 201.066406 162.808594 C 201.105469 162.496094 201.109375 162.183594 201.085938 161.867188 C 201.0625 161.550781 201.007812 161.242188 200.921875 160.9375 C 200.839844 160.632812 200.726562 160.339844 200.582031 160.058594 C 200.441406 159.773438 200.273438 159.507812 200.078125 159.261719 C 199.886719 159.011719 199.667969 158.78125 199.429688 158.574219 C 199.191406 158.367188 198.933594 158.1875 198.660156 158.03125 C 198.386719 157.875 198.101562 157.746094 197.800781 157.644531 C 197.503906 157.542969 197.195312 157.472656 196.882812 157.433594 C 196.675781 157.421875 196.472656 157.421875 196.265625 157.433594 C 195.683594 157.441406 195.121094 157.550781 194.578125 157.761719 C 194.03125 157.972656 193.542969 158.269531 193.109375 158.660156 C 192.671875 159.046875 192.316406 159.5 192.046875 160.015625 C 191.773438 160.53125 191.601562 161.082031 191.527344 161.660156 L 187.71875 192.285156 C 187.679688 192.59375 187.671875 192.902344 187.695312 193.214844 C 187.71875 193.523438 187.769531 193.828125 187.851562 194.128906 C 187.929688 194.429688 188.039062 194.71875 188.175781 194.996094 C 188.3125 195.277344 188.472656 195.539062 188.660156 195.789062 C 188.847656 196.035156 189.058594 196.261719 189.289062 196.46875 C 189.519531 196.679688 189.769531 196.863281 190.035156 197.019531 C 190.300781 197.179688 190.578125 197.3125 190.871094 197.417969 C 191.164062 197.523438 191.460938 197.601562 191.769531 197.652344 L 222.265625 202.265625 C 221.402344 203.273438 220.652344 204.359375 220.011719 205.523438 C 219.375 206.6875 218.859375 207.90625 218.472656 209.175781 C 218.082031 210.445312 217.824219 211.742188 217.703125 213.0625 C 217.582031 214.386719 217.59375 215.707031 217.742188 217.027344 C 218.082031 219.746094 218.964844 222.277344 220.390625 224.621094 L 175.527344 224.621094 L 150.65625 148.328125 C 150.496094 147.84375 150.265625 147.398438 149.96875 146.992188 C 149.667969 146.582031 149.3125 146.226562 148.90625 145.929688 C 148.496094 145.632812 148.046875 145.40625 147.566406 145.246094 C 147.085938 145.089844 146.59375 145.011719 146.085938 145.007812 L 58.226562 145.007812 C 57.847656 145.011719 57.476562 145.058594 57.105469 145.148438 C 56.738281 145.238281 56.386719 145.371094 56.050781 145.546875 C 55.714844 145.71875 55.402344 145.929688 55.117188 146.175781 C 54.828125 146.425781 54.574219 146.699219 54.351562 147.007812 C 54.128906 147.316406 53.945312 147.644531 53.800781 147.992188 C 53.65625 148.34375 53.550781 148.707031 53.492188 149.078125 C 53.429688 149.453125 53.414062 149.832031 53.441406 150.207031 C 53.46875 150.585938 53.542969 150.957031 53.65625 151.316406 L 77.550781 224.621094 L 54.285156 224.621094 C 53.707031 224.632812 53.132812 224.675781 52.558594 224.75 C 51.984375 224.820312 51.417969 224.917969 50.851562 225.042969 C 50.289062 225.167969 49.734375 225.320312 49.183594 225.5 C 48.636719 225.679688 48.097656 225.886719 47.566406 226.117188 C 47.039062 226.347656 46.519531 226.605469 46.015625 226.886719 C 45.511719 227.167969 45.023438 227.476562 44.546875 227.804688 C 44.070312 228.132812 43.613281 228.484375 43.171875 228.859375 C 42.730469 229.230469 42.308594 229.625 41.90625 230.039062 C 41.503906 230.453125 41.121094 230.886719 40.761719 231.339844 C 40.398438 231.789062 40.058594 232.257812 39.746094 232.742188 C 39.429688 233.226562 39.136719 233.722656 38.867188 234.234375 C 38.597656 234.746094 38.355469 235.273438 38.140625 235.808594 C 37.921875 236.34375 37.730469 236.890625 37.566406 237.441406 C 37.402344 237.996094 37.261719 238.558594 37.152344 239.125 C 37.039062 239.695312 36.957031 240.265625 36.902344 240.839844 C 36.847656 241.417969 36.820312 241.996094 36.820312 242.574219 C 36.820312 243.152344 36.847656 243.726562 36.902344 244.304688 C 36.957031 244.878906 37.039062 245.453125 37.152344 246.019531 C 37.261719 246.585938 37.402344 247.148438 37.566406 247.703125 C 37.730469 248.257812 37.921875 248.800781 38.140625 249.335938 C 38.355469 249.875 38.597656 250.398438 38.867188 250.910156 C 39.136719 251.421875 39.429688 251.921875 39.746094 252.402344 C 40.058594 252.886719 40.398438 253.355469 40.761719 253.808594 C 41.121094 254.257812 41.503906 254.691406 41.90625 255.105469 C 42.308594 255.519531 42.730469 255.914062 43.171875 256.289062 C 43.613281 256.660156 44.070312 257.011719 44.546875 257.339844 C 45.023438 257.671875 45.511719 257.976562 46.015625 258.257812 C 46.519531 258.539062 47.039062 258.796875 47.566406 259.027344 C 48.097656 259.257812 48.636719 259.464844 49.183594 259.644531 C 49.734375 259.824219 50.289062 259.976562 50.851562 260.101562 C 51.417969 260.226562 51.984375 260.328125 52.558594 260.398438 C 53.132812 260.46875 53.707031 260.511719 54.285156 260.527344 L 58.058594 260.527344 L 58.058594 280.023438 C 58.058594 280.339844 58.089844 280.65625 58.148438 280.96875 C 58.210938 281.28125 58.304688 281.582031 58.425781 281.875 C 58.546875 282.171875 58.695312 282.449219 58.871094 282.714844 C 59.050781 282.976562 59.25 283.222656 59.472656 283.449219 C 59.699219 283.671875 59.941406 283.875 60.207031 284.050781 C 60.472656 284.226562 60.75 284.375 61.042969 284.496094 C 61.335938 284.621094 61.640625 284.710938 61.949219 284.773438 C 62.261719 284.835938 62.578125 284.867188 62.894531 284.867188 L 73.65625 284.867188 L 73.65625 337.96875 C 73.65625 338.285156 73.6875 338.601562 73.75 338.914062 C 73.8125 339.226562 73.902344 339.527344 74.023438 339.820312 C 74.144531 340.117188 74.296875 340.394531 74.472656 340.660156 C 74.648438 340.921875 74.847656 341.167969 75.074219 341.390625 C 75.296875 341.617188 75.542969 341.816406 75.804688 341.992188 C 76.070312 342.171875 76.347656 342.320312 76.640625 342.441406 C 76.933594 342.5625 77.238281 342.65625 77.550781 342.714844 C 77.859375 342.777344 78.175781 342.808594 78.492188 342.808594 C 78.808594 342.808594 79.125 342.777344 79.4375 342.714844 C 79.746094 342.65625 80.050781 342.5625 80.34375 342.441406 C 80.636719 342.320312 80.914062 342.171875 81.179688 341.992188 C 81.441406 341.816406 81.6875 341.617188 81.910156 341.390625 C 82.136719 341.167969 82.335938 340.921875 82.511719 340.660156 C 82.6875 340.394531 82.839844 340.117188 82.960938 339.820312 C 83.082031 339.527344 83.171875 339.226562 83.234375 338.914062 C 83.296875 338.601562 83.328125 338.285156 83.328125 337.96875 L 83.328125 284.84375 L 291.308594 284.84375 L 291.308594 337.945312 C 291.308594 338.261719 291.339844 338.578125 291.402344 338.890625 C 291.464844 339.203125 291.554688 339.503906 291.675781 339.796875 C 291.796875 340.09375 291.945312 340.371094 292.125 340.636719 C 292.300781 340.902344 292.5 341.144531 292.726562 341.371094 C 292.949219 341.59375 293.195312 341.796875 293.457031 341.972656 C 293.722656 342.148438 294 342.296875 294.292969 342.421875 C 294.585938 342.542969 294.890625 342.632812 295.199219 342.695312 C 295.511719 342.757812 295.828125 342.789062 296.144531 342.789062 C 296.460938 342.789062 296.777344 342.757812 297.089844 342.695312 C 297.398438 342.632812 297.703125 342.542969 297.996094 342.421875 C 298.289062 342.296875 298.566406 342.148438 298.832031 341.972656 C 299.097656 341.796875 299.339844 341.59375 299.566406 341.371094 C 299.789062 341.144531 299.988281 340.902344 300.167969 340.636719 C 300.34375 340.371094 300.492188 340.09375 300.613281 339.796875 C 300.734375 339.503906 300.828125 339.203125 300.886719 338.890625 C 300.949219 338.578125 300.980469 338.261719 300.980469 337.945312 L 300.980469 284.84375 L 311.742188 284.84375 C 312.0625 284.84375 312.375 284.8125 312.6875 284.75 C 313 284.6875 313.300781 284.59375 313.59375 284.472656 C 313.886719 284.351562 314.167969 284.203125 314.429688 284.027344 C 314.695312 283.847656 314.9375 283.648438 315.164062 283.421875 C 315.386719 283.199219 315.589844 282.953125 315.765625 282.691406 C 315.941406 282.425781 316.089844 282.144531 316.210938 281.851562 C 316.332031 281.558594 316.425781 281.253906 316.488281 280.945312 C 316.550781 280.632812 316.578125 280.316406 316.578125 280 L 316.578125 260.5 L 320.339844 260.5 C 320.917969 260.488281 321.492188 260.445312 322.066406 260.371094 C 322.640625 260.300781 323.207031 260.203125 323.773438 260.078125 C 324.335938 259.953125 324.890625 259.800781 325.441406 259.621094 C 325.988281 259.441406 326.527344 259.234375 327.058594 259.003906 C 327.585938 258.773438 328.105469 258.515625 328.609375 258.234375 C 329.113281 257.953125 329.601562 257.644531 330.078125 257.316406 C 330.554688 256.988281 331.011719 256.636719 331.453125 256.261719 C 331.894531 255.890625 332.316406 255.496094 332.71875 255.082031 C 333.121094 254.667969 333.503906 254.234375 333.863281 253.78125 C 334.226562 253.332031 334.566406 252.863281 334.882812 252.378906 C 335.199219 251.894531 335.488281 251.398438 335.757812 250.886719 C 336.027344 250.375 336.269531 249.847656 336.484375 249.3125 C 336.703125 248.777344 336.894531 248.230469 337.058594 247.679688 C 337.226562 247.125 337.363281 246.5625 337.472656 245.996094 C 337.585938 245.425781 337.667969 244.855469 337.722656 244.28125 C 337.777344 243.703125 337.808594 243.125 337.808594 242.546875 C 337.808594 241.96875 337.777344 241.394531 337.722656 240.816406 C 337.667969 240.242188 337.585938 239.667969 337.472656 239.101562 C 337.363281 238.535156 337.226562 237.972656 337.058594 237.417969 C 336.894531 236.863281 336.703125 236.320312 336.484375 235.785156 C 336.269531 235.246094 336.027344 234.722656 335.757812 234.210938 C 335.488281 233.699219 335.199219 233.199219 334.882812 232.714844 C 334.566406 232.234375 334.226562 231.765625 333.863281 231.3125 C 333.503906 230.863281 333.121094 230.429688 332.71875 230.015625 C 332.316406 229.601562 331.894531 229.207031 331.453125 228.832031 C 331.011719 228.460938 330.554688 228.109375 330.078125 227.78125 C 329.601562 227.449219 329.113281 227.144531 328.609375 226.863281 C 328.105469 226.582031 327.585938 226.324219 327.058594 226.09375 C 326.527344 225.863281 325.988281 225.65625 325.441406 225.476562 C 324.890625 225.296875 324.335938 225.144531 323.773438 225.019531 C 323.207031 224.894531 322.640625 224.792969 322.066406 224.722656 C 321.492188 224.652344 320.917969 224.609375 320.339844 224.59375 Z M 306.808594 260.527344 L 306.808594 275.214844 L 67.671875 275.214844 L 67.671875 260.527344 Z M 320.195312 250.835938 L 54.285156 250.835938 C 53.726562 250.859375 53.171875 250.824219 52.621094 250.734375 C 52.070312 250.644531 51.53125 250.496094 51.007812 250.296875 C 50.488281 250.097656 49.992188 249.847656 49.519531 249.550781 C 49.046875 249.25 48.609375 248.90625 48.207031 248.519531 C 47.804688 248.128906 47.445312 247.707031 47.128906 247.246094 C 46.808594 246.785156 46.542969 246.296875 46.324219 245.78125 C 46.105469 245.265625 45.941406 244.734375 45.828125 244.1875 C 45.714844 243.636719 45.660156 243.082031 45.660156 242.523438 C 45.660156 241.964844 45.714844 241.410156 45.828125 240.863281 C 45.941406 240.3125 46.105469 239.78125 46.324219 239.265625 C 46.542969 238.753906 46.808594 238.265625 47.128906 237.804688 C 47.445312 237.34375 47.804688 236.917969 48.207031 236.53125 C 48.609375 236.140625 49.046875 235.796875 49.519531 235.5 C 49.992188 235.199219 50.488281 234.949219 51.007812 234.75 C 51.53125 234.550781 52.070312 234.40625 52.621094 234.316406 C 53.171875 234.222656 53.726562 234.1875 54.285156 234.210938 L 320.195312 234.210938 C 320.753906 234.1875 321.308594 234.222656 321.859375 234.316406 C 322.410156 234.40625 322.949219 234.550781 323.46875 234.75 C 323.992188 234.949219 324.488281 235.199219 324.960938 235.5 C 325.433594 235.796875 325.871094 236.140625 326.273438 236.53125 C 326.675781 236.917969 327.035156 237.34375 327.351562 237.804688 C 327.667969 238.265625 327.9375 238.753906 328.15625 239.265625 C 328.375 239.78125 328.539062 240.3125 328.652344 240.863281 C 328.761719 241.410156 328.820312 241.964844 328.820312 242.523438 C 328.820312 243.082031 328.761719 243.636719 328.652344 244.1875 C 328.539062 244.734375 328.375 245.265625 328.15625 245.78125 C 327.9375 246.296875 327.667969 246.785156 327.351562 247.246094 C 327.035156 247.707031 326.675781 248.128906 326.273438 248.519531 C 325.871094 248.90625 325.433594 249.25 324.960938 249.550781 C 324.488281 249.847656 323.992188 250.097656 323.46875 250.296875 C 322.949219 250.496094 322.410156 250.644531 321.859375 250.734375 C 321.308594 250.824219 320.753906 250.859375 320.195312 250.835938 Z M 142.601562 154.707031 L 165.410156 224.621094 L 87.671875 224.621094 L 64.863281 154.707031 Z M 142.601562 154.707031 " fill-opacity="1" fill-rule="nonzero"/></g><g clip-path="url(#d56be9aa68)"><path fill="#b188db" d="M 237.945312 114.128906 C 239.285156 114.128906 240.621094 114.0625 241.949219 113.929688 C 243.28125 113.800781 244.605469 113.601562 245.914062 113.34375 C 247.226562 113.082031 248.523438 112.753906 249.804688 112.367188 C 251.085938 111.976562 252.34375 111.527344 253.578125 111.015625 C 254.8125 110.5 256.023438 109.929688 257.203125 109.296875 C 258.382812 108.667969 259.527344 107.976562 260.640625 107.234375 C 261.753906 106.488281 262.824219 105.691406 263.859375 104.84375 C 264.894531 103.992188 265.882812 103.09375 266.828125 102.148438 C 267.777344 101.199219 268.671875 100.207031 269.519531 99.171875 C 270.371094 98.136719 271.164062 97.0625 271.910156 95.949219 C 272.652344 94.832031 273.339844 93.6875 273.96875 92.503906 C 274.601562 91.324219 275.171875 90.113281 275.683594 88.875 C 276.195312 87.636719 276.644531 86.378906 277.035156 85.09375 C 277.421875 83.8125 277.746094 82.515625 278.007812 81.203125 C 278.269531 79.886719 278.464844 78.5625 278.597656 77.230469 C 278.726562 75.898438 278.792969 74.558594 278.792969 73.21875 C 278.792969 71.878906 278.726562 70.542969 278.597656 69.210938 C 278.464844 67.878906 278.269531 66.554688 278.007812 65.238281 C 277.746094 63.925781 277.421875 62.628906 277.035156 61.347656 C 276.644531 60.0625 276.195312 58.804688 275.683594 57.566406 C 275.171875 56.328125 274.601562 55.117188 273.96875 53.9375 C 273.339844 52.753906 272.652344 51.609375 271.910156 50.492188 C 271.164062 49.378906 270.371094 48.304688 269.519531 47.269531 C 268.671875 46.234375 267.777344 45.242188 266.828125 44.292969 C 265.882812 43.347656 264.894531 42.449219 263.859375 41.597656 C 262.824219 40.75 261.753906 39.953125 260.640625 39.207031 C 259.527344 38.460938 258.382812 37.773438 257.203125 37.144531 C 256.023438 36.511719 254.8125 35.941406 253.578125 35.425781 C 252.34375 34.914062 251.085938 34.464844 249.804688 34.074219 C 248.523438 33.6875 247.226562 33.359375 245.914062 33.097656 C 244.605469 32.835938 243.28125 32.640625 241.949219 32.511719 C 240.621094 32.378906 239.285156 32.3125 237.945312 32.3125 C 236.609375 32.3125 235.273438 32.378906 233.941406 32.511719 C 232.613281 32.640625 231.289062 32.835938 229.976562 33.097656 C 228.667969 33.359375 227.371094 33.6875 226.089844 34.074219 C 224.808594 34.464844 223.550781 34.914062 222.316406 35.425781 C 221.078125 35.941406 219.871094 36.511719 218.691406 37.144531 C 217.511719 37.773438 216.367188 38.460938 215.253906 39.207031 C 214.140625 39.953125 213.070312 40.75 212.035156 41.597656 C 211 42.449219 210.011719 43.347656 209.0625 44.292969 C 208.117188 45.242188 207.222656 46.234375 206.371094 47.269531 C 205.523438 48.304688 204.726562 49.378906 203.984375 50.492188 C 203.242188 51.609375 202.554688 52.753906 201.925781 53.9375 C 201.292969 55.117188 200.722656 56.328125 200.210938 57.566406 C 199.699219 58.804688 199.246094 60.0625 198.859375 61.347656 C 198.472656 62.628906 198.148438 63.925781 197.886719 65.238281 C 197.625 66.554688 197.429688 67.878906 197.296875 69.210938 C 197.167969 70.542969 197.101562 71.878906 197.101562 73.21875 C 197.101562 74.558594 197.167969 75.894531 197.300781 77.230469 C 197.433594 78.5625 197.628906 79.886719 197.890625 81.199219 C 198.152344 82.511719 198.480469 83.808594 198.867188 85.089844 C 199.257812 86.371094 199.707031 87.632812 200.21875 88.871094 C 200.730469 90.105469 201.304688 91.316406 201.933594 92.496094 C 202.566406 93.679688 203.253906 94.824219 203.996094 95.9375 C 204.738281 97.050781 205.535156 98.125 206.382812 99.164062 C 207.230469 100.199219 208.128906 101.1875 209.074219 102.136719 C 210.019531 103.082031 211.011719 103.980469 212.042969 104.832031 C 213.078125 105.679688 214.152344 106.476562 215.261719 107.222656 C 216.375 107.96875 217.519531 108.65625 218.699219 109.285156 C 219.878906 109.917969 221.085938 110.492188 222.320312 111.003906 C 223.558594 111.519531 224.8125 111.96875 226.09375 112.359375 C 227.375 112.746094 228.667969 113.074219 229.980469 113.335938 C 231.292969 113.597656 232.613281 113.796875 233.945312 113.929688 C 235.273438 114.058594 236.609375 114.125 237.945312 114.128906 Z M 237.945312 41.941406 C 238.96875 41.941406 239.992188 41.992188 241.007812 42.089844 C 242.027344 42.191406 243.035156 42.339844 244.039062 42.542969 C 245.042969 42.742188 246.035156 42.988281 247.011719 43.289062 C 247.992188 43.585938 248.953125 43.929688 249.898438 44.320312 C 250.84375 44.714844 251.769531 45.152344 252.671875 45.632812 C 253.570312 46.117188 254.449219 46.644531 255.300781 47.210938 C 256.148438 47.78125 256.96875 48.390625 257.761719 49.039062 C 258.550781 49.691406 259.308594 50.378906 260.03125 51.101562 C 260.753906 51.828125 261.441406 52.585938 262.089844 53.375 C 262.738281 54.167969 263.347656 54.992188 263.917969 55.84375 C 264.484375 56.695312 265.011719 57.570312 265.492188 58.476562 C 265.972656 59.378906 266.410156 60.304688 266.800781 61.25 C 267.195312 62.195312 267.539062 63.160156 267.835938 64.140625 C 268.132812 65.121094 268.378906 66.113281 268.578125 67.117188 C 268.78125 68.121094 268.929688 69.136719 269.03125 70.15625 C 269.128906 71.175781 269.179688 72.195312 269.179688 73.21875 C 269.179688 74.246094 269.128906 75.265625 269.03125 76.285156 C 268.929688 77.304688 268.78125 78.316406 268.578125 79.324219 C 268.378906 80.328125 268.132812 81.320312 267.835938 82.300781 C 267.539062 83.28125 267.195312 84.246094 266.800781 85.191406 C 266.410156 86.136719 265.972656 87.0625 265.492188 87.964844 C 265.011719 88.871094 264.484375 89.746094 263.917969 90.597656 C 263.347656 91.449219 262.738281 92.273438 262.089844 93.0625 C 261.441406 93.855469 260.753906 94.613281 260.03125 95.339844 C 259.308594 96.0625 258.550781 96.75 257.761719 97.398438 C 256.96875 98.050781 256.148438 98.660156 255.300781 99.230469 C 254.449219 99.796875 253.574219 100.324219 252.671875 100.808594 C 251.769531 101.289062 250.84375 101.726562 249.898438 102.121094 C 248.953125 102.511719 247.992188 102.855469 247.011719 103.152344 C 246.035156 103.449219 245.042969 103.699219 244.039062 103.898438 C 243.035156 104.097656 242.027344 104.25 241.007812 104.351562 C 239.992188 104.449219 238.96875 104.5 237.945312 104.5 C 236.925781 104.5 235.902344 104.449219 234.886719 104.351562 C 233.867188 104.25 232.855469 104.097656 231.855469 103.898438 C 230.851562 103.699219 229.859375 103.449219 228.878906 103.152344 C 227.902344 102.855469 226.941406 102.511719 225.996094 102.121094 C 225.050781 101.726562 224.125 101.289062 223.222656 100.808594 C 222.320312 100.324219 221.445312 99.796875 220.59375 99.230469 C 219.746094 98.660156 218.921875 98.050781 218.132812 97.402344 C 217.34375 96.75 216.585938 96.0625 215.863281 95.339844 C 215.136719 94.613281 214.453125 93.855469 213.804688 93.0625 C 213.15625 92.273438 212.546875 91.449219 211.976562 90.597656 C 211.410156 89.746094 210.882812 88.871094 210.402344 87.964844 C 209.917969 87.0625 209.484375 86.136719 209.089844 85.191406 C 208.699219 84.246094 208.355469 83.28125 208.058594 82.300781 C 207.761719 81.320312 207.511719 80.328125 207.3125 79.324219 C 207.113281 78.316406 206.964844 77.304688 206.863281 76.285156 C 206.765625 75.265625 206.714844 74.246094 206.714844 73.21875 C 206.71875 72.199219 206.769531 71.175781 206.875 70.160156 C 206.976562 69.140625 207.128906 68.132812 207.332031 67.128906 C 207.53125 66.125 207.78125 65.136719 208.082031 64.15625 C 208.378906 63.179688 208.726562 62.21875 209.117188 61.273438 C 209.511719 60.332031 209.949219 59.40625 210.433594 58.507812 C 210.914062 57.605469 211.441406 56.730469 212.007812 55.878906 C 212.578125 55.03125 213.1875 54.210938 213.835938 53.421875 C 214.484375 52.628906 215.171875 51.875 215.894531 51.152344 C 216.617188 50.429688 217.371094 49.742188 218.164062 49.09375 C 218.953125 48.445312 219.773438 47.839844 220.621094 47.269531 C 221.472656 46.703125 222.347656 46.179688 223.246094 45.695312 C 224.148438 45.214844 225.070312 44.777344 226.015625 44.386719 C 226.957031 43.996094 227.917969 43.648438 228.894531 43.351562 C 229.871094 43.054688 230.863281 42.808594 231.863281 42.605469 C 232.863281 42.40625 233.875 42.253906 234.890625 42.15625 C 235.90625 42.054688 236.925781 42.003906 237.945312 42 Z M 237.945312 41.941406 " fill-opacity="1" fill-rule="nonzero"/></g><path fill="#b188db" d="M 169.375 313.640625 L 155.917969 313.640625 C 155.578125 313.601562 155.238281 313.601562 154.902344 313.632812 C 154.5625 313.667969 154.230469 313.734375 153.90625 313.839844 C 153.582031 313.941406 153.273438 314.078125 152.976562 314.246094 C 152.679688 314.417969 152.40625 314.617188 152.152344 314.84375 C 151.898438 315.070312 151.671875 315.320312 151.472656 315.597656 C 151.269531 315.871094 151.101562 316.164062 150.960938 316.476562 C 150.820312 316.785156 150.71875 317.109375 150.644531 317.441406 C 150.574219 317.777344 150.539062 318.113281 150.539062 318.453125 C 150.539062 318.792969 150.574219 319.132812 150.644531 319.464844 C 150.71875 319.796875 150.820312 320.121094 150.960938 320.433594 C 151.101562 320.742188 151.269531 321.035156 151.472656 321.3125 C 151.671875 321.585938 151.898438 321.839844 152.152344 322.066406 C 152.40625 322.292969 152.679688 322.492188 152.976562 322.660156 C 153.273438 322.828125 153.582031 322.964844 153.90625 323.070312 C 154.230469 323.171875 154.5625 323.242188 154.902344 323.273438 C 155.238281 323.308594 155.578125 323.304688 155.917969 323.265625 L 169.375 323.265625 C 169.710938 323.304688 170.050781 323.308594 170.390625 323.273438 C 170.726562 323.242188 171.058594 323.171875 171.382812 323.070312 C 171.707031 322.964844 172.019531 322.828125 172.3125 322.660156 C 172.609375 322.492188 172.882812 322.292969 173.136719 322.066406 C 173.390625 321.839844 173.617188 321.585938 173.820312 321.3125 C 174.019531 321.035156 174.191406 320.742188 174.328125 320.433594 C 174.46875 320.121094 174.574219 319.796875 174.644531 319.464844 C 174.714844 319.132812 174.75 318.792969 174.75 318.453125 C 174.75 318.113281 174.714844 317.777344 174.644531 317.441406 C 174.574219 317.109375 174.46875 316.785156 174.328125 316.476562 C 174.191406 316.164062 174.019531 315.871094 173.820312 315.597656 C 173.617188 315.320312 173.390625 315.070312 173.136719 314.84375 C 172.882812 314.617188 172.609375 314.417969 172.3125 314.246094 C 172.019531 314.078125 171.707031 313.941406 171.382812 313.839844 C 171.058594 313.734375 170.726562 313.667969 170.390625 313.632812 C 170.050781 313.601562 169.710938 313.601562 169.375 313.640625 Z M 169.375 313.640625 " fill-opacity="1" fill-rule="nonzero"/><path fill="#b188db" d="M 244.234375 313.640625 L 236.542969 313.640625 C 236.207031 313.601562 235.867188 313.601562 235.527344 313.632812 C 235.191406 313.667969 234.859375 313.734375 234.535156 313.839844 C 234.210938 313.941406 233.898438 314.078125 233.605469 314.246094 C 233.308594 314.417969 233.035156 314.617188 232.78125 314.84375 C 232.527344 315.070312 232.300781 315.320312 232.097656 315.597656 C 231.898438 315.871094 231.726562 316.164062 231.589844 316.476562 C 231.449219 316.785156 231.34375 317.109375 231.273438 317.441406 C 231.203125 317.777344 231.167969 318.113281 231.167969 318.453125 C 231.167969 318.792969 231.203125 319.132812 231.273438 319.464844 C 231.34375 319.796875 231.449219 320.121094 231.589844 320.433594 C 231.726562 320.742188 231.898438 321.035156 232.097656 321.3125 C 232.300781 321.585938 232.527344 321.839844 232.78125 322.066406 C 233.035156 322.292969 233.308594 322.492188 233.605469 322.660156 C 233.898438 322.828125 234.210938 322.964844 234.535156 323.070312 C 234.859375 323.171875 235.191406 323.242188 235.527344 323.273438 C 235.867188 323.308594 236.207031 323.304688 236.542969 323.265625 L 244.234375 323.265625 C 244.574219 323.304688 244.910156 323.308594 245.25 323.273438 C 245.589844 323.242188 245.921875 323.171875 246.246094 323.070312 C 246.570312 322.964844 246.878906 322.828125 247.175781 322.660156 C 247.46875 322.492188 247.746094 322.292969 248 322.066406 C 248.25 321.839844 248.480469 321.585938 248.679688 321.3125 C 248.878906 321.035156 249.050781 320.742188 249.191406 320.433594 C 249.328125 320.121094 249.433594 319.796875 249.503906 319.464844 C 249.574219 319.132812 249.613281 318.792969 249.613281 318.453125 C 249.613281 318.113281 249.574219 317.777344 249.503906 317.441406 C 249.433594 317.109375 249.328125 316.785156 249.191406 316.476562 C 249.050781 316.164062 248.878906 315.871094 248.679688 315.597656 C 248.480469 315.320312 248.25 315.070312 248 314.84375 C 247.746094 314.617188 247.46875 314.417969 247.175781 314.246094 C 246.878906 314.078125 246.570312 313.941406 246.246094 313.839844 C 245.921875 313.734375 245.589844 313.667969 245.25 313.632812 C 244.910156 313.601562 244.574219 313.601562 244.234375 313.640625 Z M 244.234375 313.640625 " fill-opacity="1" fill-rule="nonzero"/><path fill="#b188db" d="M 129.035156 313.640625 L 121.347656 313.640625 C 121.007812 313.601562 120.667969 313.601562 120.332031 313.632812 C 119.992188 313.667969 119.660156 313.734375 119.335938 313.839844 C 119.011719 313.941406 118.703125 314.078125 118.40625 314.246094 C 118.109375 314.417969 117.835938 314.617188 117.582031 314.84375 C 117.328125 315.070312 117.101562 315.320312 116.902344 315.597656 C 116.699219 315.871094 116.53125 316.164062 116.390625 316.476562 C 116.25 316.785156 116.148438 317.109375 116.074219 317.441406 C 116.003906 317.777344 115.96875 318.113281 115.96875 318.453125 C 115.96875 318.792969 116.003906 319.132812 116.074219 319.464844 C 116.148438 319.796875 116.25 320.121094 116.390625 320.433594 C 116.53125 320.742188 116.699219 321.035156 116.902344 321.3125 C 117.101562 321.585938 117.328125 321.839844 117.582031 322.066406 C 117.835938 322.292969 118.109375 322.492188 118.40625 322.660156 C 118.703125 322.828125 119.011719 322.964844 119.335938 323.070312 C 119.660156 323.171875 119.992188 323.242188 120.332031 323.273438 C 120.667969 323.308594 121.007812 323.304688 121.347656 323.265625 L 129.035156 323.265625 C 129.375 323.304688 129.710938 323.308594 130.050781 323.273438 C 130.390625 323.242188 130.722656 323.171875 131.046875 323.070312 C 131.371094 322.964844 131.679688 322.828125 131.976562 322.660156 C 132.269531 322.492188 132.546875 322.292969 132.800781 322.066406 C 133.054688 321.839844 133.28125 321.585938 133.480469 321.3125 C 133.683594 321.035156 133.851562 320.742188 133.992188 320.433594 C 134.128906 320.121094 134.234375 319.796875 134.304688 319.464844 C 134.378906 319.132812 134.414062 318.792969 134.414062 318.453125 C 134.414062 318.113281 134.378906 317.777344 134.304688 317.441406 C 134.234375 317.109375 134.128906 316.785156 133.992188 316.476562 C 133.851562 316.164062 133.683594 315.871094 133.480469 315.597656 C 133.28125 315.320312 133.054688 315.070312 132.800781 314.84375 C 132.546875 314.617188 132.269531 314.417969 131.976562 314.246094 C 131.679688 314.078125 131.371094 313.941406 131.046875 313.839844 C 130.722656 313.734375 130.390625 313.667969 130.050781 313.632812 C 129.710938 313.601562 129.375 313.601562 129.035156 313.640625 Z M 129.035156 313.640625 " fill-opacity="1" fill-rule="nonzero"/><path fill="#b188db" d="M 209.664062 313.640625 L 196.230469 313.640625 C 195.890625 313.601562 195.554688 313.601562 195.214844 313.632812 C 194.875 313.667969 194.542969 313.734375 194.21875 313.839844 C 193.894531 313.941406 193.585938 314.078125 193.289062 314.246094 C 192.996094 314.417969 192.71875 314.617188 192.464844 314.84375 C 192.214844 315.070312 191.984375 315.320312 191.785156 315.597656 C 191.585938 315.871094 191.414062 316.164062 191.273438 316.476562 C 191.136719 316.785156 191.03125 317.109375 190.960938 317.441406 C 190.890625 317.777344 190.855469 318.113281 190.855469 318.453125 C 190.855469 318.792969 190.890625 319.132812 190.960938 319.464844 C 191.03125 319.796875 191.136719 320.121094 191.273438 320.433594 C 191.414062 320.742188 191.585938 321.035156 191.785156 321.3125 C 191.984375 321.585938 192.214844 321.839844 192.464844 322.066406 C 192.71875 322.292969 192.996094 322.492188 193.289062 322.660156 C 193.585938 322.828125 193.894531 322.964844 194.21875 323.070312 C 194.542969 323.171875 194.875 323.242188 195.214844 323.273438 C 195.554688 323.308594 195.890625 323.304688 196.230469 323.265625 L 209.664062 323.265625 C 210.003906 323.304688 210.339844 323.308594 210.679688 323.273438 C 211.019531 323.242188 211.351562 323.171875 211.675781 323.070312 C 212 322.964844 212.308594 322.828125 212.605469 322.660156 C 212.898438 322.492188 213.175781 322.292969 213.425781 322.066406 C 213.679688 321.839844 213.910156 321.585938 214.109375 321.3125 C 214.308594 321.035156 214.480469 320.742188 214.621094 320.433594 C 214.757812 320.121094 214.863281 319.796875 214.933594 319.464844 C 215.003906 319.132812 215.039062 318.792969 215.039062 318.453125 C 215.039062 318.113281 215.003906 317.777344 214.933594 317.441406 C 214.863281 317.109375 214.757812 316.785156 214.621094 316.476562 C 214.480469 316.164062 214.308594 315.871094 214.109375 315.597656 C 213.910156 315.320312 213.679688 315.070312 213.425781 314.84375 C 213.175781 314.617188 212.898438 314.417969 212.605469 314.246094 C 212.308594 314.078125 212 313.941406 211.675781 313.839844 C 211.351562 313.734375 211.019531 313.667969 210.679688 313.632812 C 210.339844 313.601562 210.003906 313.601562 209.664062 313.640625 Z M 209.664062 313.640625 " fill-opacity="1" fill-rule="nonzero"/></svg>