<svg xmlns="http://www.w3.org/2000/svg" xmlns:xlink="http://www.w3.org/1999/xlink" width="500" zoomAndPan="magnify" viewBox="0 0 375 374.999991" height="500" preserveAspectRatio="xMidYMid meet" version="1.0"><defs><clipPath id="178d721bd2"><path d="M 22.40625 32.3125 L 352.40625 32.3125 L 352.40625 342.8125 L 22.40625 342.8125 Z M 22.40625 32.3125 " clip-rule="nonzero"/></clipPath></defs><g clip-path="url(#178d721bd2)"><path fill="#b188db" d="M 128.007812 32.316406 C 117.40625 32.316406 108.207031 40.574219 108.207031 51.191406 L 108.207031 65.347656 L 40.015625 65.347656 C 30.488281 65.347656 22.40625 73.03125 22.40625 82.597656 L 22.40625 252.890625 C 22.40625 262.457031 30.488281 270.140625 40.015625 270.140625 L 193.078125 270.140625 C 189.0625 282.222656 187.289062 296.339844 187.40625 314.578125 C 187.433594 318.210938 190.378906 321.144531 194.007812 321.144531 C 225.957031 321.144531 245.652344 330.375 250.996094 339.53125 C 252.183594 341.566406 254.351562 342.808594 256.695312 342.808594 C 259.039062 342.808594 261.210938 341.574219 262.390625 339.546875 C 267.738281 330.390625 287.4375 321.144531 319.394531 321.144531 C 323.023438 321.144531 325.96875 318.210938 325.996094 314.578125 C 326.160156 288.238281 322.496094 270.40625 313.59375 255.03125 L 332.609375 242.941406 L 332.609375 272.140625 C 329.769531 274.136719 327.890625 277.433594 327.890625 281.160156 C 327.890625 282.269531 327.894531 285.636719 333.457031 293.703125 L 338.886719 301.585938 L 344.324219 293.714844 C 349.894531 285.636719 349.894531 282.269531 349.894531 281.160156 C 349.894531 277.726562 348.277344 274.679688 345.808594 272.65625 L 345.808594 234.542969 L 349.339844 232.296875 C 351.304688 231.046875 352.472656 228.855469 352.394531 226.515625 C 352.320312 224.179688 351.039062 222.066406 348.992188 220.941406 L 299.609375 193.742188 L 299.609375 82.597656 C 299.609375 73.03125 291.523438 65.347656 282 65.347656 L 213.808594 65.347656 L 213.808594 51.191406 C 213.808594 40.574219 204.609375 32.316406 194.007812 32.316406 Z M 128.007812 45.527344 L 194.007812 45.527344 C 197.992188 45.527344 200.609375 48.257812 200.609375 51.191406 L 200.609375 65.347656 L 121.40625 65.347656 L 121.40625 51.191406 C 121.40625 48.257812 124.023438 45.527344 128.007812 45.527344 Z M 40.015625 78.558594 L 113.699219 78.558594 C 114.417969 78.679688 115.132812 78.679688 115.851562 78.558594 L 206.097656 78.558594 C 206.816406 78.679688 207.535156 78.679688 208.25 78.558594 L 282 78.558594 C 284.644531 78.558594 286.40625 80.40625 286.40625 82.597656 L 286.40625 186.464844 L 259.890625 171.859375 C 257.90625 170.761719 255.511719 170.761719 253.523438 171.859375 L 243.003906 177.652344 L 42.207031 177.652344 C 38.222656 177.652344 35.609375 174.925781 35.609375 171.988281 L 35.609375 82.597656 C 35.609375 80.40625 37.371094 78.558594 40.015625 78.558594 Z M 161.007812 131.410156 C 160.140625 131.410156 159.28125 131.496094 158.433594 131.664062 C 157.582031 131.832031 156.757812 132.082031 155.957031 132.414062 C 155.15625 132.746094 154.394531 133.15625 153.675781 133.636719 C 152.953125 134.117188 152.285156 134.667969 151.671875 135.28125 C 151.0625 135.894531 150.511719 136.558594 150.03125 137.28125 C 149.550781 138.003906 149.144531 138.765625 148.8125 139.566406 C 148.480469 140.367188 148.230469 141.195312 148.0625 142.042969 C 147.890625 142.894531 147.808594 143.753906 147.808594 144.621094 C 147.808594 145.488281 147.890625 146.347656 148.0625 147.199219 C 148.230469 148.050781 148.480469 148.878906 148.8125 149.679688 C 149.144531 150.480469 149.550781 151.242188 150.03125 151.960938 C 150.511719 152.683594 151.0625 153.351562 151.671875 153.964844 C 152.285156 154.578125 152.953125 155.125 153.675781 155.609375 C 154.394531 156.089844 155.15625 156.496094 155.957031 156.828125 C 156.757812 157.160156 157.582031 157.410156 158.433594 157.582031 C 159.28125 157.75 160.140625 157.835938 161.007812 157.835938 C 161.875 157.835938 162.734375 157.75 163.582031 157.582031 C 164.433594 157.410156 165.257812 157.160156 166.058594 156.828125 C 166.859375 156.496094 167.621094 156.089844 168.339844 155.609375 C 169.0625 155.125 169.726562 154.578125 170.339844 153.964844 C 170.953125 153.351562 171.5 152.683594 171.984375 151.960938 C 172.464844 151.242188 172.871094 150.480469 173.203125 149.679688 C 173.535156 148.878906 173.785156 148.050781 173.953125 147.199219 C 174.121094 146.347656 174.207031 145.488281 174.207031 144.621094 C 174.207031 143.753906 174.121094 142.894531 173.953125 142.042969 C 173.785156 141.195312 173.535156 140.367188 173.203125 139.566406 C 172.871094 138.765625 172.464844 138.003906 171.984375 137.28125 C 171.5 136.558594 170.953125 135.894531 170.339844 135.28125 C 169.726562 134.667969 169.0625 134.117188 168.339844 133.636719 C 167.621094 133.15625 166.859375 132.746094 166.058594 132.414062 C 165.257812 132.082031 164.433594 131.832031 163.582031 131.664062 C 162.734375 131.496094 161.875 131.410156 161.007812 131.410156 Z M 256.707031 185.203125 L 332.851562 227.136719 L 256.707031 275.523438 L 180.5625 227.136719 Z M 35.609375 189.691406 C 37.695312 190.410156 39.90625 190.867188 42.207031 190.867188 L 219.027344 190.867188 L 164.421875 220.941406 C 162.378906 222.066406 161.078125 224.179688 161.007812 226.515625 C 160.929688 228.855469 162.097656 231.046875 164.0625 232.296875 L 199.796875 255.019531 C 199.433594 255.640625 199.132812 256.296875 198.789062 256.929688 L 40.015625 256.929688 C 37.371094 256.929688 35.609375 255.082031 35.609375 252.890625 Z M 210.945312 262.089844 L 253.175781 288.929688 C 254.257812 289.613281 255.472656 289.960938 256.707031 289.960938 C 257.941406 289.960938 259.15625 289.613281 260.238281 288.929688 L 302.457031 262.101562 C 309.195312 274.035156 312.332031 288.070312 312.757812 308.0625 C 287.960938 309.039062 267.710938 315.535156 256.695312 325.84375 C 245.679688 315.53125 225.449219 309.046875 200.660156 308.0625 C 201.074219 288.039062 204.207031 273.996094 210.945312 262.089844 Z M 210.945312 262.089844 " fill-opacity="1" fill-rule="nonzero"/></g></svg>