<svg xmlns="http://www.w3.org/2000/svg" xmlns:xlink="http://www.w3.org/1999/xlink" width="500" zoomAndPan="magnify" viewBox="0 0 375 374.999991" height="500" preserveAspectRatio="xMidYMid meet" version="1.0"><defs><clipPath id="2c0e555cbc"><path d="M 1.757812 1.757812 L 373.007812 1.757812 L 373.007812 373.007812 L 1.757812 373.007812 Z M 1.757812 1.757812 " clip-rule="nonzero"/></clipPath><clipPath id="69ad046896"><path d="M 351.351562 32.695312 L 256.765625 32.695312 L 244.261719 20.191406 C 242.253906 18.183594 239.136719 17.800781 236.703125 19.261719 L 221.296875 28.503906 C 217.703125 26.65625 213.964844 25.109375 210.117188 23.871094 L 205.761719 6.445312 C 205.074219 3.691406 202.597656 1.757812 199.757812 1.757812 L 175.007812 1.757812 C 172.167969 1.757812 169.695312 3.691406 169.007812 6.445312 L 164.648438 23.871094 C 160.804688 25.109375 157.0625 26.65625 153.46875 28.503906 L 138.066406 19.261719 C 135.628906 17.800781 132.515625 18.183594 130.507812 20.191406 L 118 32.695312 L 23.414062 32.695312 C 11.472656 32.695312 1.757812 42.410156 1.757812 54.351562 L 1.757812 270.914062 C 1.757812 282.855469 11.472656 292.570312 23.414062 292.570312 L 152.488281 292.570312 C 150.367188 303.511719 145.035156 313.792969 136.773438 322.054688 L 135.320312 323.507812 L 126.949219 323.507812 C 116.019531 323.507812 106.351562 330.476562 102.894531 340.847656 L 97.074219 358.3125 C 95.941406 361.707031 96.515625 365.46875 98.605469 368.371094 C 100.699219 371.277344 104.085938 373.007812 107.664062 373.007812 L 267.101562 373.007812 C 270.679688 373.007812 274.066406 371.277344 276.160156 368.371094 C 278.253906 365.46875 278.824219 361.707031 277.695312 358.3125 L 271.871094 340.847656 C 268.417969 330.476562 258.75 323.507812 247.816406 323.507812 L 239.445312 323.507812 L 237.992188 322.054688 C 229.730469 313.792969 224.417969 303.511719 222.308594 292.570312 L 351.351562 292.570312 C 363.292969 292.570312 373.007812 282.855469 373.007812 270.914062 L 373.007812 54.351562 C 373.007812 42.410156 363.292969 32.695312 351.351562 32.695312 Z M 133.75 57.328125 L 125.171875 43.027344 L 135.839844 32.359375 L 150.140625 40.9375 C 152.070312 42.097656 154.476562 42.113281 156.425781 40.988281 C 161.117188 38.269531 166.152344 36.183594 171.386719 34.785156 C 173.5625 34.207031 175.25 32.492188 175.796875 30.308594 L 179.839844 14.132812 L 194.929688 14.132812 L 198.972656 30.308594 C 199.515625 32.492188 201.203125 34.207031 203.378906 34.785156 C 208.617188 36.183594 213.652344 38.269531 218.34375 40.988281 C 220.289062 42.113281 222.695312 42.097656 224.628906 40.9375 L 238.925781 32.359375 L 249.597656 43.027344 L 241.015625 57.328125 C 239.855469 59.257812 239.839844 61.664062 240.964844 63.613281 C 243.683594 68.304688 245.769531 73.339844 247.167969 78.574219 C 247.75 80.75 249.464844 82.4375 251.644531 82.984375 L 267.820312 87.027344 L 267.820312 102.117188 L 251.644531 106.160156 C 249.464844 106.703125 247.746094 108.390625 247.167969 110.566406 C 245.769531 115.804688 243.683594 120.839844 240.964844 125.53125 C 239.839844 127.476562 239.855469 129.882812 241.015625 131.816406 L 249.597656 146.113281 L 238.925781 156.785156 L 224.628906 148.203125 C 222.695312 147.046875 220.289062 147.027344 218.34375 148.15625 C 213.652344 150.871094 208.617188 152.957031 203.378906 154.355469 C 201.203125 154.9375 199.515625 156.652344 198.972656 158.832031 L 194.929688 175.007812 L 179.839844 175.007812 L 175.796875 158.832031 C 175.25 156.652344 173.5625 154.9375 171.386719 154.355469 C 166.152344 152.957031 161.117188 150.871094 156.425781 148.15625 C 154.476562 147.027344 152.070312 147.046875 150.140625 148.203125 L 135.839844 156.785156 L 125.171875 146.113281 L 133.75 131.816406 C 134.910156 129.882812 134.925781 127.476562 133.800781 125.53125 C 131.082031 120.839844 128.996094 115.804688 127.597656 110.566406 C 127.019531 108.390625 125.304688 106.703125 123.121094 106.160156 L 106.945312 102.117188 L 106.945312 87.027344 L 123.121094 82.984375 C 125.304688 82.4375 127.019531 80.75 127.597656 78.574219 C 128.996094 73.339844 131.082031 68.304688 133.800781 63.613281 C 134.929688 61.664062 134.910156 59.257812 133.75 57.328125 Z M 273.457031 113.460938 L 274.382812 117.160156 C 274.929688 119.34375 276.617188 121.058594 278.789062 121.640625 C 282.378906 122.597656 285.832031 124.027344 289.050781 125.890625 C 290.996094 127.019531 293.402344 127 295.332031 125.839844 L 304.363281 120.421875 L 310.03125 126.089844 L 304.613281 135.121094 C 303.457031 137.050781 303.4375 139.457031 304.566406 141.40625 C 306.429688 144.621094 307.859375 148.074219 308.816406 151.664062 C 309.394531 153.839844 311.109375 155.527344 313.292969 156.070312 L 323.507812 158.625 L 323.507812 166.640625 L 313.292969 169.195312 C 311.109375 169.742188 309.394531 171.429688 308.816406 173.601562 C 307.859375 177.191406 306.429688 180.644531 304.566406 183.859375 C 303.4375 185.808594 303.457031 188.214844 304.613281 190.144531 L 310.03125 199.175781 L 304.363281 204.84375 L 295.332031 199.425781 C 293.402344 198.265625 290.996094 198.25 289.050781 199.375 C 285.832031 201.238281 282.378906 202.671875 278.789062 203.628906 C 276.617188 204.207031 274.929688 205.921875 274.382812 208.105469 L 271.828125 218.320312 L 263.8125 218.320312 L 261.261719 208.105469 C 260.714844 205.921875 259.027344 204.207031 256.851562 203.628906 C 253.261719 202.671875 249.8125 201.242188 246.59375 199.378906 C 244.644531 198.25 242.238281 198.265625 240.308594 199.425781 L 231.28125 204.84375 L 225.609375 199.175781 L 231.03125 190.144531 C 232.1875 188.214844 232.207031 185.808594 231.078125 183.863281 C 229.214844 180.644531 227.785156 177.191406 226.828125 173.601562 C 226.246094 171.429688 224.53125 169.742188 222.347656 169.195312 L 212.132812 166.640625 L 212.132812 164.578125 C 215.273438 163.46875 218.335938 162.160156 221.296875 160.636719 L 230.886719 166.390625 C 232.773438 185.105469 248.617188 199.757812 267.820312 199.757812 C 288.292969 199.757812 304.945312 183.105469 304.945312 162.632812 C 304.945312 142.164062 288.292969 125.507812 267.820312 125.507812 C 262.742188 125.507812 257.898438 126.542969 253.488281 128.402344 C 255.320312 124.835938 256.855469 121.125 258.082031 117.304688 Z M 261.761719 151.449219 C 263.769531 149.441406 264.15625 146.324219 262.691406 143.890625 L 259.882812 139.207031 C 262.378906 138.355469 265.042969 137.882812 267.820312 137.882812 C 281.46875 137.882812 292.570312 148.988281 292.570312 162.632812 C 292.570312 176.28125 281.46875 187.382812 267.820312 187.382812 C 256.449219 187.382812 246.847656 179.671875 243.964844 169.203125 C 244.0625 169.117188 244.167969 169.042969 244.261719 168.949219 Z M 57.828125 177.675781 C 55.964844 174.457031 54.535156 171.003906 53.578125 167.414062 C 52.996094 165.242188 51.28125 163.554688 49.097656 163.007812 L 38.882812 160.453125 L 38.882812 152.4375 L 49.097656 149.886719 C 51.28125 149.339844 52.996094 147.652344 53.578125 145.476562 C 54.535156 141.886719 55.964844 138.4375 57.828125 135.21875 C 58.957031 133.273438 58.9375 130.863281 57.777344 128.933594 L 52.359375 119.90625 L 58.027344 114.234375 L 67.058594 119.65625 C 68.988281 120.8125 71.394531 120.832031 73.34375 119.703125 C 76.558594 117.839844 80.011719 116.410156 83.601562 115.453125 C 85.777344 114.871094 87.464844 113.15625 88.007812 110.972656 L 90.5625 100.757812 L 94.570312 100.757812 L 94.570312 106.945312 C 94.570312 109.785156 96.503906 112.261719 99.257812 112.949219 L 116.6875 117.304688 C 117.921875 121.152344 119.472656 124.890625 121.316406 128.484375 L 120.460938 129.914062 C 113.769531 123.375 104.644531 119.320312 94.570312 119.320312 C 74.101562 119.320312 57.445312 135.976562 57.445312 156.445312 C 57.445312 176.917969 74.101562 193.570312 94.570312 193.570312 C 110.929688 193.570312 124.839844 182.933594 129.769531 168.214844 L 130.507812 168.949219 C 131.609375 170.054688 133.050781 170.648438 134.527344 170.730469 C 133.667969 173.136719 132.597656 175.460938 131.316406 177.675781 C 130.1875 179.621094 130.207031 182.027344 131.363281 183.957031 L 136.78125 192.988281 L 131.113281 198.65625 L 122.082031 193.238281 C 120.152344 192.078125 117.746094 192.0625 115.800781 193.191406 C 112.582031 195.054688 109.132812 196.484375 105.542969 197.441406 C 103.367188 198.019531 101.679688 199.734375 101.132812 201.917969 L 98.578125 212.132812 L 90.5625 212.132812 L 88.011719 201.917969 C 87.464844 199.734375 85.777344 198.019531 83.601562 197.441406 C 80.011719 196.484375 76.5625 195.054688 73.34375 193.191406 C 71.394531 192.0625 68.988281 192.078125 67.058594 193.238281 L 58.03125 198.65625 L 52.359375 192.988281 L 57.78125 183.957031 C 58.9375 182.027344 58.957031 179.621094 57.828125 177.675781 Z M 113.003906 151.449219 L 119.289062 157.730469 C 118.617188 170.785156 107.785156 181.195312 94.570312 181.195312 C 80.925781 181.195312 69.820312 170.09375 69.820312 156.445312 C 69.820312 142.800781 80.925781 131.695312 94.570312 131.695312 C 102.355469 131.695312 109.296875 135.316406 113.835938 140.953125 L 112.074219 143.890625 C 110.613281 146.324219 110.996094 149.441406 113.003906 151.449219 Z M 23.414062 45.070312 L 111.984375 45.070312 C 112.019531 45.128906 112.039062 45.195312 112.074219 45.253906 L 121.316406 60.65625 C 119.472656 64.25 117.921875 67.988281 116.6875 71.835938 L 99.257812 76.195312 C 96.503906 76.882812 94.570312 79.355469 94.570312 82.195312 L 94.570312 88.382812 L 85.730469 88.382812 C 82.890625 88.382812 80.417969 90.316406 79.730469 93.070312 L 76.851562 104.574219 C 74.65625 105.324219 72.507812 106.214844 70.421875 107.238281 L 60.253906 101.136719 C 57.816406 99.675781 54.703125 100.058594 52.695312 102.066406 L 40.191406 114.570312 C 38.183594 116.578125 37.800781 119.691406 39.261719 122.128906 L 45.363281 132.296875 C 44.339844 134.382812 43.449219 136.53125 42.699219 138.726562 L 31.195312 141.605469 C 28.441406 142.292969 26.507812 144.765625 26.507812 147.605469 L 26.507812 165.285156 C 26.507812 168.125 28.441406 170.597656 31.195312 171.289062 L 42.699219 174.164062 C 43.449219 176.359375 44.339844 178.507812 45.363281 180.59375 L 39.261719 190.761719 C 37.800781 193.199219 38.183594 196.316406 40.191406 198.324219 L 52.695312 210.824219 C 54.703125 212.832031 57.816406 213.214844 60.253906 211.753906 L 70.421875 205.652344 C 72.507812 206.675781 74.65625 207.566406 76.851562 208.316406 L 79.730469 219.820312 C 80.417969 222.574219 82.890625 224.507812 85.730469 224.507812 L 103.410156 224.507812 C 106.25 224.507812 108.722656 222.574219 109.414062 219.820312 L 112.289062 208.316406 C 114.484375 207.566406 116.632812 206.675781 118.71875 205.652344 L 128.890625 211.753906 C 131.324219 213.214844 134.441406 212.832031 136.449219 210.824219 L 148.949219 198.324219 C 150.957031 196.316406 151.339844 193.199219 149.878906 190.761719 L 143.777344 180.59375 C 144.800781 178.507812 145.691406 176.359375 146.441406 174.164062 L 157.945312 171.289062 C 160.699219 170.597656 162.632812 168.125 162.632812 165.285156 L 162.632812 164.574219 C 163.304688 164.8125 163.972656 165.050781 164.648438 165.269531 L 169.003906 182.695312 C 169.695312 185.449219 172.167969 187.382812 175.007812 187.382812 L 199.757812 187.382812 C 202.597656 187.382812 205.074219 185.449219 205.761719 182.695312 L 206.910156 178.09375 L 215.949219 180.351562 C 216.699219 182.550781 217.589844 184.699219 218.613281 186.78125 L 212.511719 196.953125 C 211.050781 199.386719 211.433594 202.503906 213.441406 204.511719 L 225.941406 217.011719 C 227.949219 219.019531 231.066406 219.402344 233.5 217.941406 L 243.671875 211.839844 C 245.753906 212.863281 247.90625 213.753906 250.101562 214.503906 L 252.976562 226.007812 C 253.664062 228.765625 256.140625 230.695312 258.980469 230.695312 L 276.660156 230.695312 C 279.496094 230.695312 281.972656 228.761719 282.660156 226.007812 L 285.535156 214.503906 C 287.734375 213.753906 289.882812 212.863281 291.96875 211.839844 L 302.136719 217.941406 C 304.570312 219.402344 307.6875 219.019531 309.695312 217.011719 L 322.195312 204.511719 C 324.203125 202.503906 324.589844 199.386719 323.128906 196.953125 L 317.023438 186.78125 C 318.050781 184.699219 318.9375 182.550781 319.6875 180.351562 L 331.195312 177.476562 C 333.949219 176.789062 335.882812 174.3125 335.882812 171.472656 L 335.882812 153.792969 C 335.882812 150.957031 333.949219 148.480469 331.195312 147.792969 L 319.6875 144.917969 C 318.9375 142.71875 318.050781 140.570312 317.023438 138.484375 L 323.128906 128.316406 C 324.589844 125.882812 324.203125 122.765625 322.195312 120.757812 L 309.695312 108.257812 C 307.6875 106.25 304.570312 105.863281 302.136719 107.324219 L 291.96875 113.429688 C 289.882812 112.40625 287.734375 111.515625 285.535156 110.765625 L 282.660156 99.257812 C 282.289062 97.769531 281.386719 96.53125 280.195312 95.699219 L 280.195312 82.195312 C 280.195312 79.355469 278.261719 76.882812 275.507812 76.195312 L 258.078125 71.835938 C 256.84375 67.992188 255.292969 64.25 253.445312 60.65625 L 262.691406 45.253906 C 262.726562 45.195312 262.746094 45.128906 262.777344 45.070312 L 351.351562 45.070312 C 356.46875 45.070312 360.632812 49.234375 360.632812 54.351562 L 360.632812 243.070312 L 14.132812 243.070312 L 14.132812 54.351562 C 14.132812 49.234375 18.296875 45.070312 23.414062 45.070312 Z M 260.132812 344.761719 L 265.421875 360.632812 L 109.34375 360.632812 L 114.632812 344.761719 C 116.40625 339.453125 121.355469 335.882812 126.953125 335.882812 L 247.816406 335.882812 C 253.414062 335.882812 258.363281 339.453125 260.132812 344.761719 Z M 222.882812 323.507812 L 151.855469 323.507812 C 158.828125 314.308594 163.316406 303.691406 165.074219 292.570312 L 209.71875 292.570312 C 211.46875 303.683594 215.917969 314.3125 222.882812 323.507812 Z M 351.351562 280.195312 L 23.414062 280.195312 C 18.296875 280.195312 14.132812 276.03125 14.132812 270.914062 L 14.132812 255.445312 L 360.632812 255.445312 L 360.632812 270.914062 C 360.632812 276.03125 356.46875 280.195312 351.351562 280.195312 Z M 224.507812 267.820312 C 224.507812 271.238281 221.738281 274.007812 218.320312 274.007812 L 156.445312 274.007812 C 153.027344 274.007812 150.257812 271.238281 150.257812 267.820312 C 150.257812 264.402344 153.027344 261.632812 156.445312 261.632812 L 218.320312 261.632812 C 221.738281 261.632812 224.507812 264.402344 224.507812 267.820312 Z M 348.257812 267.820312 C 348.257812 271.238281 345.488281 274.007812 342.070312 274.007812 L 329.695312 274.007812 C 326.277344 274.007812 323.507812 271.238281 323.507812 267.820312 C 323.507812 264.402344 326.277344 261.632812 329.695312 261.632812 L 342.070312 261.632812 C 345.488281 261.632812 348.257812 264.402344 348.257812 267.820312 Z M 317.320312 267.820312 C 317.320312 271.238281 314.550781 274.007812 311.132812 274.007812 L 298.757812 274.007812 C 295.339844 274.007812 292.570312 271.238281 292.570312 267.820312 C 292.570312 264.402344 295.339844 261.632812 298.757812 261.632812 L 311.132812 261.632812 C 314.550781 261.632812 317.320312 264.402344 317.320312 267.820312 Z M 286.382812 267.820312 C 286.382812 271.238281 283.613281 274.007812 280.195312 274.007812 L 267.820312 274.007812 C 264.402344 274.007812 261.632812 271.238281 261.632812 267.820312 C 261.632812 264.402344 264.402344 261.632812 267.820312 261.632812 L 280.195312 261.632812 C 283.613281 261.632812 286.382812 264.402344 286.382812 267.820312 Z M 38.898438 267.820312 C 38.898438 271.238281 36.128906 274.007812 32.710938 274.007812 C 29.292969 274.007812 26.519531 271.238281 26.519531 267.820312 C 26.519531 264.402344 29.285156 261.632812 32.703125 261.632812 L 32.710938 261.632812 C 36.128906 261.632812 38.898438 264.402344 38.898438 267.820312 Z M 57.460938 267.820312 C 57.460938 271.238281 54.691406 274.007812 51.273438 274.007812 C 47.855469 274.007812 45.082031 271.238281 45.082031 267.820312 C 45.082031 264.402344 47.847656 261.632812 51.265625 261.632812 L 51.273438 261.632812 C 54.691406 261.632812 57.460938 264.402344 57.460938 267.820312 Z M 76.023438 267.820312 C 76.023438 271.238281 73.253906 274.007812 69.835938 274.007812 C 66.417969 274.007812 63.644531 271.238281 63.644531 267.820312 C 63.644531 264.402344 66.410156 261.632812 69.828125 261.632812 L 69.835938 261.632812 C 73.253906 261.632812 76.023438 264.402344 76.023438 267.820312 Z M 187.382812 144.070312 C 214.679688 144.070312 236.882812 121.867188 236.882812 94.570312 C 236.882812 67.277344 214.679688 45.070312 187.382812 45.070312 C 160.089844 45.070312 137.882812 67.277344 137.882812 94.570312 C 137.882812 121.867188 160.089844 144.070312 187.382812 144.070312 Z M 187.382812 57.445312 C 207.855469 57.445312 224.507812 74.101562 224.507812 94.570312 C 224.507812 115.042969 207.855469 131.695312 187.382812 131.695312 C 166.914062 131.695312 150.257812 115.042969 150.257812 94.570312 C 150.257812 74.101562 166.914062 57.445312 187.382812 57.445312 Z M 187.382812 57.445312 " clip-rule="nonzero"/></clipPath></defs><g clip-path="url(#2c0e555cbc)"><g clip-path="url(#69ad046896)"><path fill="#b188db" d="M 1.757812 1.757812 L 1.757812 373.007812 L 373.007812 373.007812 L 373.007812 1.757812 Z M 1.757812 1.757812 " fill-opacity="1" fill-rule="nonzero"/></g></g></svg>