<svg xmlns="http://www.w3.org/2000/svg" xmlns:xlink="http://www.w3.org/1999/xlink" width="500" zoomAndPan="magnify" viewBox="0 0 375 374.999991" height="500" preserveAspectRatio="xMidYMid meet" version="1.0"><defs><clipPath id="26a6845b6c"><path d="M 6.863281 0.925781 L 368.128906 0.925781 L 368.128906 374.425781 L 6.863281 374.425781 Z M 6.863281 0.925781 " clip-rule="nonzero"/></clipPath></defs><g clip-path="url(#26a6845b6c)"><path fill="#b188db" d="M 356.445312 199.347656 L 333.136719 199.347656 L 333.136719 193.511719 C 333.136719 188.835938 331.316406 184.425781 328.039062 181.144531 C 323.109375 176.203125 315.492188 174.976562 309.171875 177.363281 C 308.410156 174.414062 306.917969 171.695312 304.734375 169.472656 C 299.800781 164.53125 292.1875 163.304688 285.867188 165.691406 C 285.105469 162.742188 283.613281 160.023438 281.429688 157.800781 C 274.808594 151.167969 263.289062 151.167969 256.667969 157.800781 C 254.484375 160.023438 252.992188 162.742188 252.230469 165.691406 C 245.910156 163.304688 238.296875 164.53125 233.363281 169.472656 C 230.085938 172.753906 228.265625 177.164062 228.265625 181.839844 L 228.265625 199.347656 L 146.695312 199.347656 L 146.695312 181.839844 C 146.695312 177.164062 144.875 172.753906 141.566406 169.472656 C 136.664062 164.53125 129.050781 163.304688 122.726562 165.691406 C 121.96875 162.742188 120.476562 160.023438 118.257812 157.800781 C 111.671875 151.167969 100.152344 151.167969 93.5625 157.800781 C 91.347656 160.023438 89.855469 162.742188 89.0625 165.691406 C 82.773438 163.304688 75.15625 164.53125 70.257812 169.472656 C 68.039062 171.695312 66.550781 174.414062 65.757812 177.363281 C 59.464844 174.976562 51.851562 176.203125 46.953125 181.144531 C 43.644531 184.425781 41.820312 188.835938 41.820312 193.511719 L 41.820312 199.347656 L 18.515625 199.347656 L 18.515625 70.957031 L 356.445312 70.957031 Z M 321.484375 268.316406 L 304.007812 315.003906 L 304.007812 327.738281 L 245.742188 327.738281 L 245.742188 313.644531 L 244.023438 311.921875 C 236.40625 304.296875 216.613281 280.6875 216.613281 263.675781 L 216.613281 234.363281 C 216.613281 232.804688 217.207031 231.347656 218.332031 230.253906 C 220.519531 228.03125 224.359375 228.03125 226.542969 230.253906 C 227.667969 231.347656 228.265625 232.804688 228.265625 234.363281 L 228.265625 257.707031 L 239.917969 257.707031 L 239.917969 181.839844 C 239.917969 180.28125 240.511719 178.824219 241.636719 177.695312 C 243.824219 175.507812 247.664062 175.507812 249.847656 177.695312 C 250.972656 178.824219 251.570312 180.28125 251.570312 181.839844 L 251.570312 228.527344 L 263.222656 228.527344 L 263.222656 170.167969 C 263.222656 168.609375 263.816406 167.152344 264.945312 166.023438 C 267.128906 163.835938 270.96875 163.835938 273.152344 166.023438 C 274.277344 167.152344 274.875 168.609375 274.875 170.167969 L 274.875 228.527344 L 286.527344 228.527344 L 286.527344 181.839844 C 286.527344 180.28125 287.125 178.824219 288.25 177.695312 C 290.433594 175.507812 294.273438 175.507812 296.457031 177.695312 C 297.585938 178.824219 298.179688 180.28125 298.179688 181.839844 L 298.179688 228.527344 L 309.832031 228.527344 L 309.832031 193.511719 C 309.832031 191.953125 310.429688 190.496094 311.554688 189.367188 C 313.738281 187.179688 317.578125 187.179688 319.765625 189.367188 C 320.890625 190.496094 321.484375 191.953125 321.484375 193.511719 Z M 148.382812 230.253906 C 150.601562 228.03125 154.441406 228.03125 156.628906 230.253906 C 157.753906 231.347656 158.347656 232.804688 158.347656 234.363281 L 158.347656 263.675781 C 158.347656 280.6875 138.550781 304.296875 130.90625 311.921875 L 129.21875 313.644531 L 129.21875 327.738281 L 70.953125 327.738281 L 70.953125 315.003906 L 53.472656 268.316406 L 53.472656 193.511719 C 53.472656 191.953125 54.070312 190.496094 55.195312 189.402344 C 57.382812 187.179688 61.222656 187.179688 63.40625 189.402344 C 64.53125 190.496094 65.128906 191.953125 65.128906 193.511719 L 65.128906 228.527344 L 76.78125 228.527344 L 76.78125 181.839844 C 76.78125 180.28125 77.375 178.824219 78.5 177.730469 C 80.6875 175.507812 84.527344 175.507812 86.710938 177.730469 C 87.835938 178.824219 88.433594 180.28125 88.433594 181.839844 L 88.433594 228.527344 L 100.085938 228.527344 L 100.085938 170.167969 C 100.085938 168.609375 100.679688 167.152344 101.804688 166.058594 C 103.992188 163.835938 107.832031 163.835938 110.015625 166.058594 C 111.140625 167.152344 111.738281 168.609375 111.738281 170.167969 L 111.738281 228.527344 L 123.390625 228.527344 L 123.390625 181.839844 C 123.390625 180.28125 123.988281 178.824219 125.113281 177.730469 C 127.296875 175.507812 131.136719 175.507812 133.320312 177.730469 C 134.449219 178.824219 135.042969 180.28125 135.042969 181.839844 L 135.042969 257.707031 L 146.695312 257.707031 L 146.695312 234.363281 C 146.695312 232.804688 147.292969 231.347656 148.382812 230.253906 Z M 364.6875 62.699219 C 362.46875 60.511719 359.554688 59.285156 356.445312 59.285156 L 193.304688 59.285156 L 193.304688 53.449219 C 193.304688 48.773438 191.484375 44.363281 188.175781 41.082031 C 184.898438 37.765625 180.496094 35.941406 175.828125 35.941406 L 140.871094 35.941406 C 139.3125 35.941406 137.855469 35.34375 136.765625 34.21875 C 135.640625 33.125 135.042969 31.664062 135.042969 30.105469 C 135.042969 28.546875 135.640625 27.089844 136.765625 25.996094 C 137.855469 24.867188 139.3125 24.269531 140.871094 24.269531 L 210.785156 24.269531 C 215.453125 24.269531 219.855469 22.445312 223.167969 19.128906 C 226.445312 15.847656 228.265625 11.4375 228.265625 6.761719 L 228.265625 0.925781 L 216.613281 0.925781 L 216.613281 6.761719 C 216.613281 8.320312 216.015625 9.78125 214.890625 10.90625 C 213.796875 12 212.339844 12.597656 210.785156 12.597656 L 140.871094 12.597656 C 136.203125 12.597656 131.800781 14.421875 128.523438 17.738281 C 125.210938 21.019531 123.390625 25.429688 123.390625 30.105469 C 123.390625 34.78125 125.210938 39.191406 128.523438 42.472656 C 131.800781 45.789062 136.203125 47.613281 140.871094 47.613281 L 175.828125 47.613281 C 177.382812 47.613281 178.839844 48.210938 179.933594 49.339844 C 181.058594 50.433594 181.652344 51.890625 181.652344 53.449219 L 181.652344 59.285156 L 18.515625 59.285156 C 15.40625 59.285156 12.492188 60.511719 10.273438 62.699219 C 8.089844 64.921875 6.863281 67.839844 6.863281 70.957031 L 6.863281 199.347656 C 6.863281 202.464844 8.089844 205.382812 10.273438 207.605469 C 12.457031 209.792969 15.40625 211.019531 18.515625 211.019531 L 41.820312 211.019531 L 41.820312 270.441406 L 59.300781 317.128906 L 59.300781 329.363281 C 58.441406 329.859375 57.613281 330.457031 56.882812 331.1875 C 54.699219 333.375 53.472656 336.292969 53.472656 339.410156 L 53.472656 374.425781 L 65.128906 374.425781 L 65.128906 339.410156 L 135.042969 339.410156 L 135.042969 374.425781 L 146.695312 374.425781 L 146.695312 339.410156 C 146.695312 336.292969 145.472656 333.375 143.285156 331.152344 C 142.558594 330.425781 141.730469 329.859375 140.871094 329.332031 L 140.871094 318.421875 C 147.390625 311.457031 170 285.824219 170 263.675781 L 170 234.363281 C 170 229.6875 168.179688 225.277344 164.871094 221.960938 C 160.136719 217.222656 152.851562 215.960938 146.695312 218.050781 L 146.695312 211.019531 L 228.265625 211.019531 L 228.265625 218.050781 C 222.105469 215.960938 214.824219 217.222656 210.089844 221.996094 C 206.78125 225.277344 204.960938 229.6875 204.960938 234.363281 L 204.960938 263.675781 C 204.960938 285.824219 227.570312 311.457031 234.089844 318.421875 L 234.089844 329.332031 C 233.230469 329.859375 232.402344 330.425781 231.675781 331.152344 C 229.488281 333.375 228.265625 336.292969 228.265625 339.410156 L 228.265625 374.425781 L 239.917969 374.425781 L 239.917969 339.410156 L 309.832031 339.410156 L 309.832031 374.425781 L 321.484375 374.425781 L 321.484375 339.410156 C 321.484375 336.292969 320.261719 333.375 318.074219 331.152344 C 317.347656 330.425781 316.519531 329.859375 315.660156 329.332031 L 315.660156 317.128906 L 333.136719 270.441406 L 333.136719 211.019531 L 356.445312 211.019531 C 359.554688 211.019531 362.5 209.792969 364.6875 207.605469 C 366.871094 205.417969 368.097656 202.464844 368.097656 199.347656 L 368.097656 70.957031 C 368.097656 67.839844 366.871094 64.890625 364.6875 62.699219 " fill-opacity="1" fill-rule="nonzero"/></g><path fill="#b188db" d="M 41.820312 82.628906 L 53.472656 82.628906 L 53.472656 94.300781 L 41.820312 94.300781 L 41.820312 82.628906 " fill-opacity="1" fill-rule="nonzero"/><path fill="#b188db" d="M 65.128906 82.628906 L 76.78125 82.628906 L 76.78125 94.300781 L 65.128906 94.300781 L 65.128906 82.628906 " fill-opacity="1" fill-rule="nonzero"/><path fill="#b188db" d="M 88.433594 82.628906 L 100.085938 82.628906 L 100.085938 94.300781 L 88.433594 94.300781 L 88.433594 82.628906 " fill-opacity="1" fill-rule="nonzero"/><path fill="#b188db" d="M 111.738281 82.628906 L 123.390625 82.628906 L 123.390625 94.300781 L 111.738281 94.300781 L 111.738281 82.628906 " fill-opacity="1" fill-rule="nonzero"/><path fill="#b188db" d="M 135.042969 82.628906 L 146.695312 82.628906 L 146.695312 94.300781 L 135.042969 94.300781 L 135.042969 82.628906 " fill-opacity="1" fill-rule="nonzero"/><path fill="#b188db" d="M 158.347656 82.628906 L 170 82.628906 L 170 94.300781 L 158.347656 94.300781 L 158.347656 82.628906 " fill-opacity="1" fill-rule="nonzero"/><path fill="#b188db" d="M 181.652344 82.628906 L 193.304688 82.628906 L 193.304688 94.300781 L 181.652344 94.300781 L 181.652344 82.628906 " fill-opacity="1" fill-rule="nonzero"/><path fill="#b188db" d="M 204.960938 82.628906 L 216.613281 82.628906 L 216.613281 94.300781 L 204.960938 94.300781 L 204.960938 82.628906 " fill-opacity="1" fill-rule="nonzero"/><path fill="#b188db" d="M 228.265625 82.628906 L 239.917969 82.628906 L 239.917969 94.300781 L 228.265625 94.300781 L 228.265625 82.628906 " fill-opacity="1" fill-rule="nonzero"/><path fill="#b188db" d="M 251.570312 82.628906 L 263.222656 82.628906 L 263.222656 94.300781 L 251.570312 94.300781 L 251.570312 82.628906 " fill-opacity="1" fill-rule="nonzero"/><path fill="#b188db" d="M 274.875 82.628906 L 286.527344 82.628906 L 286.527344 94.300781 L 274.875 94.300781 L 274.875 82.628906 " fill-opacity="1" fill-rule="nonzero"/><path fill="#b188db" d="M 298.179688 82.628906 L 309.832031 82.628906 L 309.832031 94.300781 L 298.179688 94.300781 L 298.179688 82.628906 " fill-opacity="1" fill-rule="nonzero"/><path fill="#b188db" d="M 321.484375 82.628906 L 333.136719 82.628906 L 333.136719 94.300781 L 321.484375 94.300781 L 321.484375 82.628906 " fill-opacity="1" fill-rule="nonzero"/><path fill="#b188db" d="M 30.167969 105.972656 L 41.820312 105.972656 L 41.820312 117.644531 L 30.167969 117.644531 L 30.167969 105.972656 " fill-opacity="1" fill-rule="nonzero"/><path fill="#b188db" d="M 53.472656 105.972656 L 65.128906 105.972656 L 65.128906 117.644531 L 53.472656 117.644531 L 53.472656 105.972656 " fill-opacity="1" fill-rule="nonzero"/><path fill="#b188db" d="M 76.78125 105.972656 L 88.433594 105.972656 L 88.433594 117.644531 L 76.78125 117.644531 L 76.78125 105.972656 " fill-opacity="1" fill-rule="nonzero"/><path fill="#b188db" d="M 100.085938 105.972656 L 111.738281 105.972656 L 111.738281 117.644531 L 100.085938 117.644531 L 100.085938 105.972656 " fill-opacity="1" fill-rule="nonzero"/><path fill="#b188db" d="M 123.390625 105.972656 L 135.042969 105.972656 L 135.042969 117.644531 L 123.390625 117.644531 L 123.390625 105.972656 " fill-opacity="1" fill-rule="nonzero"/><path fill="#b188db" d="M 146.695312 105.972656 L 158.347656 105.972656 L 158.347656 117.644531 L 146.695312 117.644531 L 146.695312 105.972656 " fill-opacity="1" fill-rule="nonzero"/><path fill="#b188db" d="M 170 105.972656 L 181.652344 105.972656 L 181.652344 117.644531 L 170 117.644531 L 170 105.972656 " fill-opacity="1" fill-rule="nonzero"/><path fill="#b188db" d="M 193.304688 105.972656 L 204.960938 105.972656 L 204.960938 117.644531 L 193.304688 117.644531 L 193.304688 105.972656 " fill-opacity="1" fill-rule="nonzero"/><path fill="#b188db" d="M 216.613281 105.972656 L 228.265625 105.972656 L 228.265625 117.644531 L 216.613281 117.644531 L 216.613281 105.972656 " fill-opacity="1" fill-rule="nonzero"/><path fill="#b188db" d="M 239.917969 105.972656 L 251.570312 105.972656 L 251.570312 117.644531 L 239.917969 117.644531 L 239.917969 105.972656 " fill-opacity="1" fill-rule="nonzero"/><path fill="#b188db" d="M 263.222656 105.972656 L 274.875 105.972656 L 274.875 117.644531 L 263.222656 117.644531 L 263.222656 105.972656 " fill-opacity="1" fill-rule="nonzero"/><path fill="#b188db" d="M 286.527344 105.972656 L 298.179688 105.972656 L 298.179688 117.644531 L 286.527344 117.644531 L 286.527344 105.972656 " fill-opacity="1" fill-rule="nonzero"/><path fill="#b188db" d="M 309.832031 105.972656 L 321.484375 105.972656 L 321.484375 117.644531 L 309.832031 117.644531 L 309.832031 105.972656 " fill-opacity="1" fill-rule="nonzero"/><path fill="#b188db" d="M 333.136719 105.972656 L 344.789062 105.972656 L 344.789062 117.644531 L 333.136719 117.644531 L 333.136719 105.972656 " fill-opacity="1" fill-rule="nonzero"/><path fill="#b188db" d="M 41.820312 129.316406 L 53.472656 129.316406 L 53.472656 140.988281 L 41.820312 140.988281 L 41.820312 129.316406 " fill-opacity="1" fill-rule="nonzero"/><path fill="#b188db" d="M 65.128906 129.316406 L 76.78125 129.316406 L 76.78125 140.988281 L 65.128906 140.988281 L 65.128906 129.316406 " fill-opacity="1" fill-rule="nonzero"/><path fill="#b188db" d="M 88.433594 129.316406 L 100.085938 129.316406 L 100.085938 140.988281 L 88.433594 140.988281 L 88.433594 129.316406 " fill-opacity="1" fill-rule="nonzero"/><path fill="#b188db" d="M 111.738281 129.316406 L 123.390625 129.316406 L 123.390625 140.988281 L 111.738281 140.988281 L 111.738281 129.316406 " fill-opacity="1" fill-rule="nonzero"/><path fill="#b188db" d="M 135.042969 129.316406 L 146.695312 129.316406 L 146.695312 140.988281 L 135.042969 140.988281 L 135.042969 129.316406 " fill-opacity="1" fill-rule="nonzero"/><path fill="#b188db" d="M 158.347656 129.316406 L 170 129.316406 L 170 140.988281 L 158.347656 140.988281 L 158.347656 129.316406 " fill-opacity="1" fill-rule="nonzero"/><path fill="#b188db" d="M 181.652344 129.316406 L 193.304688 129.316406 L 193.304688 140.988281 L 181.652344 140.988281 L 181.652344 129.316406 " fill-opacity="1" fill-rule="nonzero"/><path fill="#b188db" d="M 204.960938 129.316406 L 216.613281 129.316406 L 216.613281 140.988281 L 204.960938 140.988281 L 204.960938 129.316406 " fill-opacity="1" fill-rule="nonzero"/><path fill="#b188db" d="M 228.265625 129.316406 L 239.917969 129.316406 L 239.917969 140.988281 L 228.265625 140.988281 L 228.265625 129.316406 " fill-opacity="1" fill-rule="nonzero"/><path fill="#b188db" d="M 251.570312 129.316406 L 263.222656 129.316406 L 263.222656 140.988281 L 251.570312 140.988281 L 251.570312 129.316406 " fill-opacity="1" fill-rule="nonzero"/><path fill="#b188db" d="M 274.875 129.316406 L 286.527344 129.316406 L 286.527344 140.988281 L 274.875 140.988281 L 274.875 129.316406 " fill-opacity="1" fill-rule="nonzero"/><path fill="#b188db" d="M 298.179688 129.316406 L 309.832031 129.316406 L 309.832031 140.988281 L 298.179688 140.988281 L 298.179688 129.316406 " fill-opacity="1" fill-rule="nonzero"/><path fill="#b188db" d="M 321.484375 129.316406 L 333.136719 129.316406 L 333.136719 140.988281 L 321.484375 140.988281 L 321.484375 129.316406 " fill-opacity="1" fill-rule="nonzero"/><path fill="#b188db" d="M 30.167969 152.660156 L 41.820312 152.660156 L 41.820312 164.332031 L 30.167969 164.332031 L 30.167969 152.660156 " fill-opacity="1" fill-rule="nonzero"/><path fill="#b188db" d="M 53.472656 152.660156 L 65.128906 152.660156 L 65.128906 164.332031 L 53.472656 164.332031 L 53.472656 152.660156 " fill-opacity="1" fill-rule="nonzero"/><path fill="#b188db" d="M 146.695312 152.660156 L 158.347656 152.660156 L 158.347656 164.332031 L 146.695312 164.332031 L 146.695312 152.660156 " fill-opacity="1" fill-rule="nonzero"/><path fill="#b188db" d="M 170 152.660156 L 181.652344 152.660156 L 181.652344 164.332031 L 170 164.332031 L 170 152.660156 " fill-opacity="1" fill-rule="nonzero"/><path fill="#b188db" d="M 193.304688 152.660156 L 204.960938 152.660156 L 204.960938 164.332031 L 193.304688 164.332031 L 193.304688 152.660156 " fill-opacity="1" fill-rule="nonzero"/><path fill="#b188db" d="M 216.613281 152.660156 L 228.265625 152.660156 L 228.265625 164.332031 L 216.613281 164.332031 L 216.613281 152.660156 " fill-opacity="1" fill-rule="nonzero"/><path fill="#b188db" d="M 309.832031 152.660156 L 321.484375 152.660156 L 321.484375 164.332031 L 309.832031 164.332031 L 309.832031 152.660156 " fill-opacity="1" fill-rule="nonzero"/><path fill="#b188db" d="M 333.136719 152.660156 L 344.789062 152.660156 L 344.789062 164.332031 L 333.136719 164.332031 L 333.136719 152.660156 " fill-opacity="1" fill-rule="nonzero"/><path fill="#b188db" d="M 158.347656 176.003906 L 216.613281 176.003906 L 216.613281 187.675781 L 158.347656 187.675781 L 158.347656 176.003906 " fill-opacity="1" fill-rule="nonzero"/></svg>